<svg width="237" height="119" viewBox="0 0 237 119" fill="none" xmlns="http://www.w3.org/2000/svg">
<path d="M236.727 118.426C204.19 118.426 177.814 92.111 177.814 59.6504C210.351 59.6504 236.727 85.9653 236.727 118.426Z" fill="#F6F6F6"/>
<path d="M120.029 118.426L118.313 118.426L118.313 116.715C118.313 85.1988 143.919 59.6507 175.51 59.6507L177.226 59.6507L177.226 61.3624C177.226 92.8777 151.62 118.426 120.029 118.426Z" fill="#2A1A99"/>
<path d="M179.53 58.7754L177.814 58.7754L177.814 57.0637C177.814 25.5479 203.42 -0.000173118 235.011 -0.000171736L236.727 -0.000171661L236.727 1.71156C236.727 33.2268 211.121 58.7754 179.53 58.7754Z" fill="#2A1A99"/>
<path d="M177.226 57.0638L177.226 58.7756L175.51 58.7756C143.921 58.7756 118.313 33.227 118.313 1.71173L118.313 -2.5758e-06L120.029 -2.50077e-06C151.62 -1.11955e-06 177.226 25.5486 177.226 57.0638Z" fill="#928BEB"/>
<path d="M118.41 118.69C85.874 118.69 59.4988 92.376 59.4988 59.9165C92.0345 59.9165 118.41 86.2305 118.41 118.69Z" fill="#F6F6F6"/>
<path d="M1.71611 118.687L0.000228882 118.687L0.000228957 116.976C0.000230334 85.4612 25.6053 59.9139 57.1953 59.9139L58.9111 59.9139L58.9111 61.6256C58.9111 93.1398 33.3061 118.687 1.71611 118.687Z" fill="#2A1A99"/>
<path d="M61.2146 59.0425L59.4988 59.0425L59.4988 57.3308C59.4988 25.8162 85.1038 0.268923 116.694 0.268925L118.41 0.268925L118.41 1.98059C118.41 33.4947 92.8046 59.0425 61.2146 59.0425Z" fill="#2A1A99"/>
<path d="M58.9111 57.3304L58.9111 59.0421L57.1952 59.0421C25.6073 59.0421 0.00022743 33.4944 0.000228807 1.98022L0.000228882 0.268552L1.71611 0.268552C33.3061 0.268554 58.9111 25.8163 58.9111 57.3304Z" fill="#928BEB"/>
</svg>
