<svg width="78" height="78" viewBox="0 0 78 78" fill="none" xmlns="http://www.w3.org/2000/svg">
<g clip-path="url(#clip0_502_1025)">
<path d="M0 44.5928L33.1164 11.4764L66.2328 44.5928L33.1164 77.7092L0 44.5928Z" fill="#1A3957"/>
<path d="M44.8992 32.8013L21.334 32.8013L21.334 56.3838L44.8992 56.3838L44.8992 32.8013Z" fill="#B5D8C4"/>
<path d="M47.8555 30.3325L41.4421 12.064L53.8701 11.5013L47.8555 30.3325Z" fill="#1A3957"/>
<path d="M46.6729 29.3125L64.9414 22.8991L65.504 35.3272L46.6729 29.3125Z" fill="#1A3957"/>
<path d="M49.4487 32.8247C48.5369 32.8247 47.6456 32.5543 46.8875 32.0478C46.1294 31.5413 45.5386 30.8213 45.1897 29.9789C44.8408 29.1366 44.7495 28.2097 44.9273 27.3154C45.1052 26.4212 45.5443 25.5998 46.189 24.9551C46.8337 24.3104 47.6551 23.8713 48.5493 23.6935C49.4436 23.5156 50.3705 23.6069 51.2128 23.9558C52.0552 24.3047 52.7751 24.8956 53.2817 25.6537C53.7882 26.4118 54.0586 27.303 54.0586 28.2148C54.0586 29.4374 53.5729 30.61 52.7084 31.4745C51.8439 32.339 50.6713 32.8247 49.4487 32.8247Z" fill="#1A3957"/>
</g>
<defs>
<clipPath id="clip0_502_1025">
<rect width="63.0639" height="46.8337" fill="white" transform="translate(0 44.5928) rotate(-45)"/>
</clipPath>
</defs>
</svg>
