<svg width="337" height="420" viewBox="0 0 337 420" fill="none" xmlns="http://www.w3.org/2000/svg">
<path d="M13.5917 369H14V369.408C14 373.013 12.568 376.47 10.0191 379.019C7.47016 381.568 4.01307 383 0.408333 383H0V382.592C0 378.987 1.43197 375.53 3.98091 372.981C6.52984 370.432 9.98693 369 13.5917 369Z" fill="#B5D8C4"/>
<path d="M0.408333 369H0V368.592C0 364.987 1.43197 361.53 3.98091 358.981C6.52984 356.432 9.98693 355 13.5917 355H14V355.408C14 359.013 12.568 362.47 10.0191 365.019C7.47016 367.568 4.01307 369 0.408333 369Z" fill="#F5F5FC"/>
<path d="M28.3583 383C22.6938 383 17.2612 380.75 13.2557 376.744C9.25025 372.739 7 367.306 7 361.642L7 361H7.64167C13.3062 361 18.7388 363.25 22.7443 367.256C26.7498 371.261 29 376.694 29 382.358V383H28.3583Z" fill="#2A1A99"/>
<path d="M50.3583 361H51V361.642C51 367.306 48.7498 372.739 44.7443 376.744C40.7388 380.75 35.3062 383 29.6417 383H29V382.358C29 376.694 31.2502 371.261 35.2557 367.256C39.2612 363.25 44.6938 361 50.3583 361Z" fill="#B5D8C4"/>
<path d="M29.6417 361H29V360.358C29 354.694 31.2502 349.261 35.2557 345.256C39.2612 341.25 44.6938 339 50.3583 339H51V339.642C51 345.306 48.7498 350.739 44.7443 354.744C40.7388 358.75 35.3062 361 29.6417 361Z" fill="#CAC7EF"/>
<path d="M7.64167 339C13.3062 339 18.7388 341.25 22.7443 345.256C26.7498 349.261 29 354.694 29 360.358V361H28.3583C22.6938 361 17.2612 358.75 13.2557 354.744C9.25025 350.739 7 345.306 7 339.642L7 339H7.64167Z" fill="#B5D8C4"/>
<path d="M314.358 383C308.694 383 303.261 380.75 299.256 376.744C295.25 372.739 293 367.306 293 361.642V361H293.642C299.306 361 304.739 363.25 308.744 367.256C312.75 371.261 315 376.694 315 382.358V383H314.358Z" fill="#2A1A99"/>
<path d="M336.358 361H337V361.642C337 367.306 334.75 372.739 330.744 376.744C326.739 380.75 321.306 383 315.642 383H315V382.358C315 376.694 317.25 371.261 321.256 367.256C325.261 363.25 330.694 361 336.358 361Z" fill="#B5D8C4"/>
<path d="M315.642 361H315V360.358C315 354.694 317.25 349.261 321.256 345.256C325.261 341.25 330.694 339 336.358 339H337V339.642C337 345.306 334.75 350.739 330.744 354.744C326.739 358.75 321.306 361 315.642 361Z" fill="#CAC7EF"/>
<path d="M293.642 339C299.306 339 304.739 341.25 308.744 345.256C312.75 349.261 315 354.694 315 360.358V361H314.358C308.694 361 303.261 358.75 299.256 354.744C295.25 350.739 293 345.306 293 339.642V339H293.642Z" fill="#B5D8C4"/>
<path d="M148.941 382.487L148.941 308.792L223.053 308.792L223.053 382.487L148.941 382.487Z" fill="#1A3957"/>
<path d="M185.989 319.41L159.62 345.63L186.008 371.869L212.376 345.649L185.989 319.41Z" fill="#B5D8C4"/>
<path d="M186.533 313.373L158.915 300.182L172.192 285.727L186.533 313.373Z" fill="#1A3957"/>
<path d="M184.069 313.554L197.334 286.091L211.87 299.293L184.069 313.554Z" fill="#1A3957"/>
<path d="M191.103 314.372C190.083 315.387 188.783 316.078 187.368 316.358C185.953 316.638 184.486 316.494 183.153 315.945C181.82 315.396 180.681 314.466 179.88 313.273C179.078 312.08 178.65 310.678 178.65 309.243C178.65 307.808 179.078 306.406 179.88 305.213C180.681 304.02 181.82 303.09 183.153 302.541C184.486 301.992 185.953 301.849 187.368 302.129C188.783 302.408 190.083 303.099 191.103 304.114C192.471 305.474 193.24 307.319 193.24 309.243C193.24 311.167 192.471 313.012 191.103 314.372Z" fill="#1A3957"/>
</svg>
