<svg width="375" height="421" viewBox="0 0 375 421" fill="none" xmlns="http://www.w3.org/2000/svg">
<rect x="199" y="255" width="55" height="128" fill="url(#paint0_linear_1989_2453)"/>
<rect x="85" y="279" width="55" height="104" fill="url(#paint1_linear_1989_2453)"/>
<path d="M198.592 383C194.987 383 191.53 381.568 188.981 379.019C186.432 376.47 185 373.013 185 369.408V369H185.408C189.013 369 192.47 370.432 195.019 372.981C197.568 375.53 199 378.987 199 382.592V383H198.592Z" fill="#870F78"/>
<path d="M212.592 369H213V369.408C213 373.013 211.568 376.47 209.019 379.019C206.47 381.568 203.013 383 199.408 383H199V382.592C199 378.987 200.432 375.53 202.981 372.981C205.53 370.432 208.987 369 212.592 369Z" fill="#B5D8C4"/>
<path d="M199.408 369H199V368.592C199 364.987 200.432 361.53 202.981 358.981C205.53 356.432 208.987 355 212.592 355H213V355.408C213 359.013 211.568 362.47 209.019 365.019C206.47 367.568 203.013 369 199.408 369Z" fill="#F6F6F6"/>
<path d="M185.408 355C189.013 355 192.47 356.432 195.019 358.981C197.568 361.53 199 364.987 199 368.592V369H198.592C194.987 369 191.53 367.568 188.981 365.019C186.432 362.47 185 359.013 185 355.408V355H185.408Z" fill="#B5D8C4"/>
<path d="M374.592 383C370.987 383 367.53 381.568 364.981 379.019C362.432 376.47 361 373.013 361 369.408V369H361.408C365.013 369 368.47 370.432 371.019 372.981C373.568 375.53 375 378.987 375 382.592V383H374.592Z" fill="#2A1A99"/>
<path d="M361.408 355C365.013 355 368.47 356.432 371.019 358.981C373.568 361.53 375 364.987 375 368.592V369H374.592C370.987 369 367.53 367.568 364.981 365.019C362.432 362.47 361 359.013 361 355.408V355H361.408Z" fill="#B5D8C4"/>
<line y1="382.5" x2="1123" y2="382.5" stroke="#6A6AE2"/>
<rect x="56.0005" y="348" width="40" height="35" rx="4" fill="url(#paint2_linear_1989_2453)"/>
<rect x="61.0005" y="368" width="9" height="14" rx="2" fill="#D9D9D9"/>
<rect x="76.0005" y="357" width="7" height="8" rx="1" fill="#D9D9D9"/>
<rect x="85.0005" y="357" width="7" height="8" rx="1" fill="#D9D9D9"/>
<path d="M62.9827 337.408L54.1692 349.408C53.6841 350.068 54.1558 351 54.9752 351H97.1463C97.942 351 98.419 350.116 97.982 349.451L90.0963 337.451C89.9113 337.169 89.5973 337 89.2606 337H63.7886C63.4703 337 63.1711 337.152 62.9827 337.408Z" fill="#1A3957" stroke="#1A3957"/>
<path d="M49.0005 395.999C41.3067 395.999 35.0697 389.777 35.0697 382.103C42.7635 382.103 49.0005 388.324 49.0005 395.999Z" fill="#2A1A99"/>
<path d="M21.4056 396L20.9998 396L20.9998 395.595C20.9998 388.144 27.0547 382.103 34.5249 382.103L34.9307 382.103L34.9307 382.508C34.9307 389.959 28.8758 396 21.4056 396Z" fill="#870F78"/>
<path d="M35.4754 381.896L35.0697 381.896L35.0697 381.492C35.0697 374.04 41.1246 368 48.5947 368L49.0005 368L49.0005 368.405C49.0005 375.856 42.9456 381.896 35.4754 381.896Z" fill="#870F78"/>
<path d="M34.9307 381.493L34.9307 381.898L34.5249 381.898C27.0552 381.898 20.9998 375.857 20.9998 368.406L20.9998 368.001L21.4056 368.001C28.8758 368.001 34.9307 374.042 34.9307 381.493Z" fill="#2A1A99"/>
<path d="M-0.00105286 65L-0.00105286 -7.62939e-05L64.999 -7.62939e-05C64.999 35.8984 35.8974 65 -0.00105286 65Z" fill="#B5D8C4"/>
<path d="M-0.00125504 36.9824L-0.00125504 -0.000457764L36.8906 -0.000457764C36.8906 20.4247 20.3736 36.9824 -0.00125504 36.9824Z" fill="#EFEFFF"/>
<path d="M-0.00100708 16.9707L-0.00100708 0.000267029L16.9277 0.000267029C16.9305 2.22612 16.4948 4.43071 15.6455 6.48818C14.7962 8.54565 13.55 10.4157 11.9781 11.9915C10.4061 13.5674 8.5391 14.8182 6.48373 15.6725C4.42836 16.5268 2.22484 16.968 -0.00100708 16.9707Z" fill="#1A3957"/>
<path d="M162 309H176V323C176 326.713 174.525 330.274 171.899 332.899C169.274 335.525 165.713 337 162 337H148V323C148 319.287 149.475 315.726 152.101 313.101C154.726 310.475 158.287 309 162 309Z" fill="#B5D8C4"/>
<path d="M162 315.05C164.183 315.05 166.277 315.917 167.821 317.461C169.364 319.004 170.231 321.098 170.231 323.281C170.231 325.464 169.364 327.558 167.821 329.101C166.277 330.645 164.183 331.512 162 331.512H153.769V323.281C153.769 321.098 154.636 319.004 156.18 317.461C157.724 315.917 159.817 315.05 162 315.05Z" fill="#870F78"/>
<path d="M170.47 309H176.07V314.6C176.07 316.828 175.185 318.964 173.61 320.54C172.035 322.115 169.898 323 167.67 323H162.07V317.4C162.07 315.172 162.955 313.036 164.531 311.46C166.106 309.885 168.242 309 170.47 309Z" fill="#F2F1FB"/>
<path d="M108 342H176V379C176 381.209 174.209 383 172 383H112C109.791 383 108 381.209 108 379V342Z" fill="url(#paint3_linear_1989_2453)"/>
<rect x="108" y="339" width="68" height="3" fill="#B5D8C4"/>
<rect x="115" y="363" width="20" height="19" rx="2" fill="#CAC7EF"/>
<path d="M125.653 372.467L125.522 372.467L125.522 372.337C125.522 369.941 127.469 368 129.87 368L130 368L130 368.13C130 370.525 128.054 372.467 125.653 372.467Z" fill="#F6F6F6"/>
<path d="M125.478 372.337L125.478 372.467L125.347 372.467C122.946 372.467 121 370.525 121 368.13L121 368L121.13 368C123.531 368 125.478 369.942 125.478 372.337Z" fill="#2A1A99"/>
<rect x="120" y="372" width="11" height="10" fill="url(#paint4_linear_1989_2453)"/>
<path d="M176.467 333H108V334.848H176.467V333Z" fill="#2B2256"/>
<path d="M176 335H108V337H176V335Z" fill="#2B2256"/>
<path d="M172.885 343.886V347.219C172.885 349.413 174.478 351.191 176.443 351.191C178.408 351.191 180 349.412 180 347.219V343.886H172.885Z" fill="#A0D5B6"/>
<path d="M165.772 343.886V347.219C165.772 349.413 167.365 351.191 169.33 351.191C171.293 351.191 172.886 349.412 172.886 347.219V343.886H165.772Z" fill="#E1E1E1"/>
<path d="M158.658 343.886V347.219C158.658 349.413 160.25 351.191 162.215 351.191C164.18 351.191 165.772 349.412 165.772 347.219V343.886H158.658Z" fill="#A0D5B6"/>
<path d="M151.545 343.886V347.219C151.545 349.413 153.138 351.191 155.101 351.191C157.066 351.191 158.658 349.412 158.658 347.219V343.886H151.545Z" fill="#E1E1E1"/>
<path d="M144.43 343.886V347.219C144.43 349.413 146.022 351.191 147.987 351.191C149.952 351.191 151.544 349.412 151.544 347.219V343.886H144.43Z" fill="#A0D5B6"/>
<path d="M169.477 336.58L172.885 343.886H180L174.03 336.58H169.477Z" fill="#B5D8C4"/>
<path d="M164.442 336.58L165.773 343.886H172.886L169.478 336.58H164.442Z" fill="#E1E1E1"/>
<path d="M158.532 343.886H165.773L164.442 336.58H158.658L158.532 343.886Z" fill="#B5D8C4"/>
<path d="M158.658 336.58H151.545V343.886H158.658V336.58Z" fill="#E1E1E1"/>
<path d="M151.544 336.58H144.43V343.886H151.544V336.58Z" fill="#B5D8C4"/>
<path d="M110.115 343.886V347.219C110.115 349.413 108.522 351.191 106.557 351.191C104.593 351.191 103 349.412 103 347.219V343.886H110.115Z" fill="#A0D5B6"/>
<path d="M117.229 343.886V347.219C117.229 349.413 115.636 351.191 113.671 351.191C111.708 351.191 110.115 349.412 110.115 347.219V343.886H117.229Z" fill="#E1E1E1"/>
<path d="M124.343 343.886V347.219C124.343 349.413 122.75 351.191 120.786 351.191C118.821 351.191 117.229 349.412 117.229 347.219V343.886H124.343Z" fill="#A0D5B6"/>
<path d="M131.456 343.886V347.219C131.456 349.413 129.864 351.191 127.9 351.191C125.935 351.191 124.343 349.412 124.343 347.219V343.886H131.456Z" fill="#E1E1E1"/>
<path d="M138.572 343.886V347.219C138.572 349.413 136.979 351.191 135.014 351.191C133.05 351.191 131.457 349.412 131.457 347.219V343.886H138.572Z" fill="#A0D5B6"/>
<path d="M113.523 336.58L110.115 343.886H103L108.97 336.58H113.523Z" fill="#B5D8C4"/>
<path d="M118.559 336.58L117.229 343.886H110.115L113.523 336.58H118.559Z" fill="#E1E1E1"/>
<path d="M124.469 343.886H117.228L118.559 336.58H124.343L124.469 343.886Z" fill="#B5D8C4"/>
<path d="M131.456 336.58H124.343V343.886H131.456V336.58Z" fill="#E1E1E1"/>
<path d="M138.572 336.58H131.457V343.886H138.572V336.58Z" fill="#B5D8C4"/>
<path d="M144.429 336.58H138.571V343.886H144.429V336.58Z" fill="#E1E1E1"/>
<path d="M141.5 351.192C139.882 351.192 138.571 349.727 138.571 347.921V343.886H144.429V347.921C144.429 349.727 143.117 351.192 141.5 351.192Z" fill="#E1E1E1"/>
<path d="M308.755 302H228.246V381.311H308.755V302Z" fill="#EBEBEB"/>
<path d="M305.423 325.724H273.5V377.473H305.423V325.724Z" fill="#2C1E6D"/>
<path d="M302.889 360.368H276.034V375.425H302.889V360.368Z" fill="#B3A8E8"/>
<path d="M302.889 328.351H276.034V357.446H302.889V328.351Z" fill="#B3A8E8"/>
<path d="M263.566 325.724H233.067V357.701H263.566V325.724Z" fill="#2C1E6D"/>
<path d="M261.147 328.177H235.49V355.324H261.147V328.177Z" fill="#B3A8E8"/>
<path d="M265.059 356.75H231.576V361.318H265.059V356.75Z" fill="#2C1E6D"/>
<path d="M302.889 362.995V367.943L290.635 375.425H282.526L302.889 362.995Z" fill="#D5D5D5"/>
<path d="M289.733 328.351L276.034 336.712V331.765L281.623 328.351H289.733Z" fill="#D5D5D5"/>
<path d="M249.269 328.177L235.49 336.538V331.591L241.111 328.177H249.269Z" fill="#D5D5D5"/>
<path d="M301.559 328.351L276.034 343.94V338.992L293.463 328.351H301.559Z" fill="#D5D5D5"/>
<path d="M261.08 328.177L235.49 343.766V338.818L252.963 328.177H261.08Z" fill="#D5D5D5"/>
<path d="M310.736 308.395H226.264V310.675H310.736V308.395Z" fill="#2B2256"/>
<path d="M309.416 310.675H227.586V312.955H309.416V310.675Z" fill="#2B2256"/>
<path d="M307.222 323.06V327.171C307.222 329.879 309.187 332.073 311.611 332.073C314.035 332.073 315.999 329.878 315.999 327.171V323.06H307.222Z" fill="#A0D5B6"/>
<path d="M298.446 323.06V327.171C298.446 329.879 300.411 332.073 302.835 332.073C305.258 332.073 307.223 329.878 307.223 327.171V323.06H298.446Z" fill="#E1E1E1"/>
<path d="M289.668 323.06V327.171C289.668 329.879 291.633 332.073 294.057 332.073C296.481 332.073 298.446 329.878 298.446 327.171V323.06H289.668Z" fill="#A0D5B6"/>
<path d="M280.893 323.06V327.171C280.893 329.879 282.858 332.073 285.28 332.073C287.705 332.073 289.669 329.878 289.669 327.171V323.06H280.893Z" fill="#E1E1E1"/>
<path d="M272.114 323.06V327.171C272.114 329.879 274.079 332.073 276.503 332.073C278.927 332.073 280.892 329.878 280.892 327.171V323.06H272.114Z" fill="#A0D5B6"/>
<path d="M303.017 314.045L307.222 323.059H315.999L308.634 314.045H303.017Z" fill="#B5D8C4"/>
<path d="M296.805 314.045L298.446 323.059H307.223L303.018 314.045H296.805Z" fill="#E1E1E1"/>
<path d="M289.513 323.059H298.447L296.805 314.045H289.669L289.513 323.059Z" fill="#B5D8C4"/>
<path d="M289.669 314.045H280.893V323.059H289.669V314.045Z" fill="#E1E1E1"/>
<path d="M280.892 314.045H272.114V323.059H280.892V314.045Z" fill="#B5D8C4"/>
<path d="M229.778 323.06V327.171C229.778 329.879 227.813 332.073 225.389 332.073C222.965 332.073 221 329.878 221 327.171V323.06H229.778Z" fill="#A0D5B6"/>
<path d="M238.555 323.06V327.171C238.555 329.879 236.59 332.073 234.166 332.073C231.743 332.073 229.778 329.878 229.778 327.171V323.06H238.555Z" fill="#E1E1E1"/>
<path d="M247.332 323.06V327.171C247.332 329.879 245.367 332.073 242.944 332.073C240.52 332.073 238.555 329.878 238.555 327.171V323.06H247.332Z" fill="#A0D5B6"/>
<path d="M256.108 323.06V327.171C256.108 329.879 254.143 332.073 251.721 332.073C249.296 332.073 247.332 329.878 247.332 327.171V323.06H256.108Z" fill="#E1E1E1"/>
<path d="M264.887 323.06V327.171C264.887 329.879 262.922 332.073 260.498 332.073C258.074 332.073 256.109 329.878 256.109 327.171V323.06H264.887Z" fill="#A0D5B6"/>
<path d="M233.983 314.045L229.778 323.059H221L228.365 314.045H233.983Z" fill="#B5D8C4"/>
<path d="M240.196 314.045L238.555 323.059H229.778L233.983 314.045H240.196Z" fill="#E1E1E1"/>
<path d="M247.488 323.059H238.554L240.196 314.045H247.332L247.488 323.059Z" fill="#B5D8C4"/>
<path d="M256.108 314.045H247.332V323.059H256.108V314.045Z" fill="#E1E1E1"/>
<path d="M264.887 314.045H256.109V323.059H264.887V314.045Z" fill="#B5D8C4"/>
<path d="M272.113 314.045H264.886V323.059H272.113V314.045Z" fill="#E1E1E1"/>
<path d="M268.499 332.072C266.503 332.072 264.886 330.266 264.886 328.037V323.059H272.113V328.037C272.113 330.266 270.495 332.072 268.499 332.072Z" fill="#E1E1E1"/>
<path d="M311.107 377.474H225.892V382.986H311.107V377.474Z" fill="#2C1E6D"/>
<path d="M249.653 346.467L249.522 346.467L249.522 346.337C249.522 343.941 251.469 342 253.87 342L254 342L254 342.13C254 344.525 252.054 346.467 249.653 346.467Z" fill="#F6F6F6"/>
<path d="M249.478 346.337L249.478 346.467L249.347 346.467C246.946 346.467 245 344.525 245 342.13L245 342L245.13 342C247.531 342 249.478 343.942 249.478 346.337Z" fill="#2A1A99"/>
<rect x="244" y="346" width="11" height="10" fill="url(#paint5_linear_1989_2453)"/>
<defs>
<linearGradient id="paint0_linear_1989_2453" x1="226.5" y1="88.6" x2="226.5" y2="403.114" gradientUnits="userSpaceOnUse">
<stop stop-color="#1A3957"/>
<stop offset="1" stop-color="#1A3957"/>
</linearGradient>
<linearGradient id="paint1_linear_1989_2453" x1="106.5" y1="388" x2="120" y2="296" gradientUnits="userSpaceOnUse">
<stop stop-color="#69B689"/>
<stop offset="1" stop-color="#A0D5B6"/>
</linearGradient>
<linearGradient id="paint2_linear_1989_2453" x1="76.0005" y1="302.5" x2="76.0005" y2="388.5" gradientUnits="userSpaceOnUse">
<stop stop-color="#2A1A99"/>
<stop offset="1" stop-color="#6A6AE2"/>
</linearGradient>
<linearGradient id="paint3_linear_1989_2453" x1="140.5" y1="459.729" x2="140.5" y2="344.343" gradientUnits="userSpaceOnUse">
<stop stop-color="#2A1A99"/>
<stop offset="1" stop-color="#6A6AE2"/>
</linearGradient>
<linearGradient id="paint4_linear_1989_2453" x1="125.5" y1="359" x2="125.5" y2="383.571" gradientUnits="userSpaceOnUse">
<stop stop-color="#2A1A99"/>
<stop offset="1" stop-color="#6A6AE2"/>
</linearGradient>
<linearGradient id="paint5_linear_1989_2453" x1="249.5" y1="333" x2="249.5" y2="357.571" gradientUnits="userSpaceOnUse">
<stop stop-color="#2A1A99"/>
<stop offset="1" stop-color="#6A6AE2"/>
</linearGradient>
</defs>
</svg>
