<svg width="337" height="297" viewBox="0 0 337 297" fill="none" xmlns="http://www.w3.org/2000/svg">
<path d="M13.5917 246H14V246.408C14 250.013 12.568 253.47 10.0191 256.019C7.47016 258.568 4.01307 260 0.408333 260H0V259.592C0 255.987 1.43197 252.53 3.98091 249.981C6.52984 247.432 9.98693 246 13.5917 246Z" fill="#B5D8C4"/>
<path d="M0.408333 246H0V245.592C0 241.987 1.43197 238.53 3.98091 235.981C6.52984 233.432 9.98693 232 13.5917 232H14V232.408C14 236.013 12.568 239.47 10.0191 242.019C7.47016 244.568 4.01307 246 0.408333 246Z" fill="#F5F5FC"/>
<path d="M28.3583 260C22.6938 260 17.2612 257.75 13.2557 253.744C9.25025 249.739 7 244.306 7 238.642L7 238H7.64167C13.3062 238 18.7388 240.25 22.7443 244.256C26.7498 248.261 29 253.694 29 259.358V260H28.3583Z" fill="#2A1A99"/>
<path d="M50.3583 238H51V238.642C51 244.306 48.7498 249.739 44.7443 253.744C40.7388 257.75 35.3062 260 29.6417 260H29V259.358C29 253.694 31.2502 248.261 35.2557 244.256C39.2612 240.25 44.6938 238 50.3583 238Z" fill="#B5D8C4"/>
<path d="M29.6417 238H29V237.358C29 231.694 31.2502 226.261 35.2557 222.256C39.2612 218.25 44.6938 216 50.3583 216H51V216.642C51 222.306 48.7498 227.739 44.7443 231.744C40.7388 235.75 35.3062 238 29.6417 238Z" fill="#CAC7EF"/>
<path d="M7.64167 216C13.3062 216 18.7388 218.25 22.7443 222.256C26.7498 226.261 29 231.694 29 237.358V238H28.3583C22.6938 238 17.2612 235.75 13.2557 231.744C9.25025 227.739 7 222.306 7 216.642L7 216H7.64167Z" fill="#B5D8C4"/>
<path d="M314.358 260C308.694 260 303.261 257.75 299.256 253.744C295.25 249.739 293 244.306 293 238.642V238H293.642C299.306 238 304.739 240.25 308.744 244.256C312.75 248.261 315 253.694 315 259.358V260H314.358Z" fill="#2A1A99"/>
<path d="M336.358 238H337V238.642C337 244.306 334.75 249.739 330.744 253.744C326.739 257.75 321.306 260 315.642 260H315V259.358C315 253.694 317.25 248.261 321.256 244.256C325.261 240.25 330.694 238 336.358 238Z" fill="#B5D8C4"/>
<path d="M315.642 238H315V237.358C315 231.694 317.25 226.261 321.256 222.256C325.261 218.25 330.694 216 336.358 216H337V216.642C337 222.306 334.75 227.739 330.744 231.744C326.739 235.75 321.306 238 315.642 238Z" fill="#CAC7EF"/>
<path d="M293.642 216C299.306 216 304.739 218.25 308.744 222.256C312.75 226.261 315 231.694 315 237.358V238H314.358C308.694 238 303.261 235.75 299.256 231.744C295.25 227.739 293 222.306 293 216.642V216H293.642Z" fill="#B5D8C4"/>
<path d="M148.941 259.487L148.941 185.792L223.053 185.792L223.053 259.487L148.941 259.487Z" fill="#1A3957"/>
<path d="M185.989 196.41L159.62 222.63L186.008 248.869L212.376 222.649L185.989 196.41Z" fill="#B5D8C4"/>
<path d="M186.533 190.373L158.915 177.182L172.192 162.727L186.533 190.373Z" fill="#1A3957"/>
<path d="M184.069 190.554L197.334 163.091L211.87 176.293L184.069 190.554Z" fill="#1A3957"/>
<path d="M191.103 191.372C190.083 192.387 188.783 193.078 187.368 193.358C185.953 193.638 184.486 193.494 183.153 192.945C181.82 192.396 180.681 191.466 179.88 190.273C179.078 189.08 178.65 187.678 178.65 186.243C178.65 184.808 179.078 183.406 179.88 182.213C180.681 181.02 181.82 180.09 183.153 179.541C184.486 178.992 185.953 178.849 187.368 179.129C188.783 179.408 190.083 180.099 191.103 181.114C192.471 182.474 193.24 184.319 193.24 186.243C193.24 188.167 192.471 190.012 191.103 191.372Z" fill="#1A3957"/>
</svg>
