<svg width="375" height="420" viewBox="0 0 375 420" fill="none" xmlns="http://www.w3.org/2000/svg">
<rect x="100" y="255" width="55" height="128" fill="url(#paint0_linear_565_1920)"/>
<rect x="-14" y="279" width="55" height="104" fill="url(#paint1_linear_565_1920)"/>
<path d="M99.5917 383C95.9869 383 92.5298 381.568 89.9809 379.019C87.432 376.47 86 373.013 86 369.408V369H86.4083C90.0131 369 93.4702 370.432 96.0191 372.981C98.568 375.53 100 378.987 100 382.592V383H99.5917Z" fill="#2A1A99"/>
<path d="M113.592 369H114V369.408C114 373.013 112.568 376.47 110.019 379.019C107.47 381.568 104.013 383 100.408 383H100V382.592C100 378.987 101.432 375.53 103.981 372.981C106.53 370.432 109.987 369 113.592 369Z" fill="#B5D8C4"/>
<path d="M100.408 369H100V368.592C100 364.987 101.432 361.53 103.981 358.981C106.53 356.432 109.987 355 113.592 355H114V355.408C114 359.013 112.568 362.47 110.019 365.019C107.47 367.568 104.013 369 100.408 369Z" fill="#F5F5FC"/>
<path d="M86.4083 355C90.0131 355 93.4702 356.432 96.0191 358.981C98.568 361.53 100 364.987 100 368.592V369H99.5917C95.9869 369 92.5298 367.568 89.9809 365.019C87.432 362.47 86 359.013 86 355.408V355H86.4083Z" fill="#B5D8C4"/>
<path d="M275.592 383C271.987 383 268.53 381.568 265.981 379.019C263.432 376.47 262 373.013 262 369.408V369H262.408C266.013 369 269.47 370.432 272.019 372.981C274.568 375.53 276 378.987 276 382.592V383H275.592Z" fill="#2A1A99"/>
<path d="M289.592 369H290V369.408C290 373.013 288.568 376.47 286.019 379.019C283.47 381.568 280.013 383 276.408 383H276V382.592C276 378.987 277.432 375.53 279.981 372.981C282.53 370.432 285.987 369 289.592 369Z" fill="#B5D8C4"/>
<path d="M276.408 369H276V368.592C276 364.987 277.432 361.53 279.981 358.981C282.53 356.432 285.987 355 289.592 355H290V355.408C290 359.013 288.568 362.47 286.019 365.019C283.47 367.568 280.013 369 276.408 369Z" fill="#F5F5FC"/>
<path d="M262.408 355C266.013 355 269.47 356.432 272.019 358.981C274.568 361.53 276 364.987 276 368.592V369H275.592C271.987 369 268.53 367.568 265.981 365.019C263.432 362.47 262 359.013 262 355.408V355H262.408Z" fill="#B5D8C4"/>
<path d="M304.358 383C298.694 383 293.261 380.75 289.256 376.744C285.25 372.739 283 367.306 283 361.642V361H283.642C289.306 361 294.739 363.25 298.744 367.256C302.75 371.261 305 376.694 305 382.358V383H304.358Z" fill="#2A1A99"/>
<path d="M326.358 361H327V361.642C327 367.306 324.75 372.739 320.744 376.744C316.739 380.75 311.306 383 305.642 383H305V382.358C305 376.694 307.25 371.261 311.256 367.256C315.261 363.25 320.694 361 326.358 361Z" fill="#B5D8C4"/>
<path d="M305.642 361H305V360.358C305 354.694 307.25 349.261 311.256 345.256C315.261 341.25 320.694 339 326.358 339H327V339.642C327 345.306 324.75 350.739 320.744 354.744C316.739 358.75 311.306 361 305.642 361Z" fill="#CAC7EF"/>
<path d="M283.642 339C289.306 339 294.739 341.25 298.744 345.256C302.75 349.261 305 354.694 305 360.358V361H304.358C298.694 361 293.261 358.75 289.256 354.744C285.25 350.739 283 345.306 283 339.642V339H283.642Z" fill="#B5D8C4"/>
<path d="M167 146.524C167 147.989 167.582 149.394 168.618 150.429C169.654 151.465 171.059 152.047 172.524 152.047C173.989 152.047 175.394 151.465 176.43 150.429C177.466 149.394 178.048 147.989 178.048 146.524C178.048 145.059 177.466 143.654 176.43 142.618C175.394 141.582 173.989 141 172.524 141C171.059 141 169.654 141.582 168.618 142.618C167.582 143.654 167 145.059 167 146.524Z" fill="#B5D8C4"/>
<path d="M211 148.524C211 149.989 211.582 151.394 212.618 152.429C213.654 153.465 215.059 154.047 216.524 154.047C217.989 154.047 219.394 153.465 220.43 152.429C221.466 151.394 222.048 149.989 222.048 148.524C222.048 147.059 221.466 145.654 220.43 144.618C219.394 143.582 217.989 143 216.524 143C215.059 143 213.654 143.582 212.618 144.618C211.582 145.654 211 147.059 211 148.524Z" fill="#B5D8C4"/>
<path d="M180 126.524C180 127.989 180.582 129.394 181.618 130.43C182.654 131.466 184.059 132.048 185.524 132.048C186.989 132.048 188.394 131.466 189.43 130.43C190.466 129.394 191.048 127.989 191.048 126.524C191.048 125.059 190.466 123.654 189.43 122.618C188.394 121.582 186.989 121 185.524 121C184.059 121 182.654 121.582 181.618 122.618C180.582 123.654 180 125.059 180 126.524Z" fill="#B5D8C4"/>
<path d="M211.048 165.524C211.048 164.059 210.466 162.654 209.43 161.618C208.395 160.582 206.99 160 205.525 160C204.06 160 202.655 160.582 201.619 161.618C200.583 162.654 200.001 164.059 200.001 165.524C200.001 166.989 200.583 168.394 201.619 169.43C202.655 170.466 204.06 171.048 205.525 171.048C206.99 171.048 208.395 170.466 209.43 169.43C210.466 168.394 211.048 166.989 211.048 165.524Z" fill="#B5D8C4"/>
<path d="M203 129.524C203 130.989 203.582 132.394 204.618 133.43C205.654 134.466 207.059 135.048 208.524 135.048C209.989 135.048 211.394 134.466 212.43 133.43C213.466 132.394 214.048 130.989 214.048 129.524C214.048 128.059 213.466 126.654 212.43 125.618C211.394 124.582 209.989 124 208.524 124C207.059 124 205.654 124.582 204.618 125.618C203.582 126.654 203 128.059 203 129.524Z" fill="#B5D8C4"/>
<path d="M188.048 165.524C188.048 164.059 187.466 162.654 186.43 161.618C185.395 160.582 183.99 160 182.525 160C181.06 160 179.655 160.582 178.619 161.618C177.583 162.654 177.001 164.059 177.001 165.524C177.001 166.989 177.583 168.394 178.619 169.43C179.655 170.466 181.06 171.048 182.525 171.048C183.99 171.048 185.395 170.466 186.43 169.43C187.466 168.394 188.048 166.989 188.048 165.524Z" fill="#B5D8C4"/>
<path d="M180 146.715C180 148.619 180.375 150.504 181.104 152.264C181.833 154.023 182.901 155.621 184.247 156.968C185.594 158.314 187.192 159.382 188.951 160.111C190.711 160.84 192.596 161.215 194.5 161.215C196.405 161.215 198.29 160.84 200.049 160.111C201.809 159.382 203.407 158.314 204.754 156.968C206.1 155.621 207.168 154.023 207.897 152.264C208.626 150.504 209.001 148.619 209 146.715C209 144.811 208.625 142.925 207.897 141.166C207.168 139.407 206.1 137.808 204.753 136.462C203.407 135.115 201.809 134.047 200.049 133.318C198.29 132.59 196.404 132.215 194.5 132.215C190.655 132.215 186.967 133.742 184.247 136.462C181.528 139.181 180 142.869 180 146.715Z" fill="#1A3957"/>
<path d="M63 309H77V323C77 326.713 75.525 330.274 72.8995 332.899C70.274 335.525 66.713 337 63 337H49V323C49 319.287 50.475 315.726 53.1005 313.101C55.726 310.475 59.287 309 63 309Z" fill="#B5D8C4"/>
<path d="M63.0002 315.05C65.1833 315.05 67.2769 315.918 68.8206 317.461C70.3642 319.005 71.2314 321.098 71.2314 323.281C71.2314 325.465 70.3642 327.558 68.8206 329.102C67.2769 330.645 65.1833 331.513 63.0002 331.513H54.769V323.281C54.769 321.098 55.6363 319.005 57.1799 317.461C58.7235 315.918 60.8172 315.05 63.0002 315.05Z" fill="#1A3957"/>
<path d="M71.4703 309H77.0703V314.6C77.0703 316.828 76.1853 318.964 74.61 320.54C73.0347 322.115 70.8981 323 68.6703 323H63.0703V317.4C63.0703 315.172 63.9553 313.036 65.5306 311.46C67.1059 309.885 69.2425 309 71.4703 309Z" fill="#EFEFFF"/>
<path d="M9 342H77V379C77 381.209 75.2091 383 73 383H13C10.7909 383 9 381.209 9 379V342Z" fill="url(#paint2_linear_565_1920)"/>
<rect x="9" y="339" width="68" height="3" fill="#B5D8C4"/>
<rect x="16" y="363" width="20" height="19" rx="2" fill="#CAC7EF"/>
<path d="M26.6528 372.467L26.5224 372.467L26.5224 372.337C26.5224 369.942 28.4685 368 30.8696 368L31 368L31 368.13C31 370.525 29.0538 372.467 26.6528 372.467Z" fill="#F6F6F6"/>
<path d="M26.4775 372.337L26.4775 372.467L26.3471 372.467C23.9462 372.467 21.9999 370.525 21.9999 368.13L21.9999 368L22.1303 368C24.5314 368 26.4775 369.942 26.4775 372.337Z" fill="#2A1A99"/>
<rect x="21" y="372" width="11" height="10" fill="url(#paint3_linear_565_1920)"/>
<path d="M77.4672 333H9V334.848H77.4672V333Z" fill="#2B2256"/>
<path d="M77 335H9V337H77V335Z" fill="#2B2256"/>
<path d="M73.8853 343.886V347.219C73.8853 349.414 75.478 351.192 77.4426 351.192C79.4078 351.192 80.9999 349.413 80.9999 347.219V343.886H73.8853Z" fill="#A0D5B6"/>
<path d="M66.7725 343.886V347.219C66.7725 349.414 68.3652 351.192 70.3298 351.192C72.2932 351.192 73.8859 349.413 73.8859 347.219V343.886H66.7725Z" fill="#E1E1E1"/>
<path d="M59.6577 343.886V347.219C59.6577 349.414 61.2504 351.192 63.215 351.192C65.1796 351.192 66.7724 349.413 66.7724 347.219V343.886H59.6577Z" fill="#A0D5B6"/>
<path d="M52.5449 343.886V347.219C52.5449 349.414 54.1376 351.192 56.1011 351.192C58.0663 351.192 59.6584 349.413 59.6584 347.219V343.886H52.5449Z" fill="#E1E1E1"/>
<path d="M45.4297 343.886V347.219C45.4297 349.414 47.0224 351.192 48.987 351.192C50.9516 351.192 52.5443 349.413 52.5443 347.219V343.886H45.4297Z" fill="#A0D5B6"/>
<path d="M70.4771 336.58L73.8853 343.886H80.9999L75.03 336.58H70.4771Z" fill="#B5D8C4"/>
<path d="M65.4419 336.58L66.7726 343.886H73.8861L70.4779 336.58H65.4419Z" fill="#E1E1E1"/>
<path d="M59.5317 343.886H66.7729L65.4422 336.58H59.6583L59.5317 343.886Z" fill="#B5D8C4"/>
<path d="M59.6584 336.58H52.5449V343.886H59.6584V336.58Z" fill="#E1E1E1"/>
<path d="M52.5443 336.58H45.4297V343.886H52.5443V336.58Z" fill="#B5D8C4"/>
<path d="M11.1146 343.886V347.219C11.1146 349.414 9.52193 351.192 7.55732 351.192C5.59272 351.192 4 349.413 4 347.219V343.886H11.1146Z" fill="#A0D5B6"/>
<path d="M18.2287 343.886V347.219C18.2287 349.414 16.636 351.192 14.6714 351.192C12.708 351.192 11.1152 349.413 11.1152 347.219V343.886H18.2287Z" fill="#E1E1E1"/>
<path d="M25.3432 343.886V347.219C25.3432 349.414 23.7504 351.192 21.7858 351.192C19.8212 351.192 18.2285 349.413 18.2285 347.219V343.886H25.3432Z" fill="#A0D5B6"/>
<path d="M32.4562 343.886V347.219C32.4562 349.414 30.8635 351.192 28.9001 351.192C26.9349 351.192 25.3428 349.413 25.3428 347.219V343.886H32.4562Z" fill="#E1E1E1"/>
<path d="M39.5717 343.886V347.219C39.5717 349.414 37.979 351.192 36.0144 351.192C34.0497 351.192 32.457 349.413 32.457 347.219V343.886H39.5717Z" fill="#A0D5B6"/>
<path d="M14.5229 336.58L11.1146 343.886H4L9.96987 336.58H14.5229Z" fill="#B5D8C4"/>
<path d="M19.5594 336.58L18.2287 343.886H11.1152L14.5234 336.58H19.5594Z" fill="#E1E1E1"/>
<path d="M25.4692 343.886H18.228L19.5594 336.58H25.3433L25.4692 343.886Z" fill="#B5D8C4"/>
<path d="M32.4562 336.58H25.3428V343.886H32.4562V336.58Z" fill="#E1E1E1"/>
<path d="M39.5717 336.58H32.457V343.886H39.5717V336.58Z" fill="#B5D8C4"/>
<path d="M45.429 336.58H39.5708V343.886H45.429V336.58Z" fill="#E1E1E1"/>
<path d="M42.4996 351.191C40.8819 351.191 39.5708 349.727 39.5708 347.92V343.885H45.429V347.92C45.429 349.727 44.1173 351.191 42.4996 351.191Z" fill="#E1E1E1"/>
<path d="M209.755 302H129.246V381.311H209.755V302Z" fill="#EBEBEB"/>
<path d="M206.423 325.723H174.5V377.473H206.423V325.723Z" fill="#2C1E6D"/>
<path d="M203.889 360.368H177.034V375.425H203.889V360.368Z" fill="#B3A8E8"/>
<path d="M203.889 328.351H177.034V357.446H203.889V328.351Z" fill="#B3A8E8"/>
<path d="M164.566 325.723H134.067V357.7H164.566V325.723Z" fill="#2C1E6D"/>
<path d="M162.147 328.176H136.49V355.323H162.147V328.176Z" fill="#B3A8E8"/>
<path d="M166.059 356.75H132.576V361.318H166.059V356.75Z" fill="#2C1E6D"/>
<path d="M203.889 362.995V367.943L191.635 375.425H183.526L203.889 362.995Z" fill="#D5D5D5"/>
<path d="M190.733 328.351L177.034 336.713V331.765L182.623 328.351H190.733Z" fill="#D5D5D5"/>
<path d="M150.269 328.176L136.49 336.538V331.59L142.111 328.176H150.269Z" fill="#D5D5D5"/>
<path d="M202.559 328.351L177.034 343.94V338.993L194.463 328.351H202.559Z" fill="#D5D5D5"/>
<path d="M162.08 328.176L136.49 343.765V338.818L153.963 328.176H162.08Z" fill="#D5D5D5"/>
<path d="M211.736 308.395H127.264V310.675H211.736V308.395Z" fill="#2B2256"/>
<path d="M210.416 310.675H128.586V312.955H210.416V310.675Z" fill="#2B2256"/>
<path d="M208.222 323.059V327.171C208.222 329.878 210.187 332.072 212.611 332.072C215.035 332.072 216.999 329.878 216.999 327.171V323.059H208.222Z" fill="#A0D5B6"/>
<path d="M199.446 323.059V327.171C199.446 329.878 201.411 332.072 203.835 332.072C206.258 332.072 208.223 329.878 208.223 327.171V323.059H199.446Z" fill="#E1E1E1"/>
<path d="M190.668 323.059V327.171C190.668 329.878 192.633 332.072 195.057 332.072C197.481 332.072 199.446 329.878 199.446 327.171V323.059H190.668Z" fill="#A0D5B6"/>
<path d="M181.893 323.059V327.171C181.893 329.878 183.858 332.072 186.28 332.072C188.705 332.072 190.669 329.878 190.669 327.171V323.059H181.893Z" fill="#E1E1E1"/>
<path d="M173.114 323.059V327.171C173.114 329.878 175.079 332.072 177.503 332.072C179.927 332.072 181.892 329.878 181.892 327.171V323.059H173.114Z" fill="#A0D5B6"/>
<path d="M204.017 314.045L208.222 323.059H216.999L209.634 314.045H204.017Z" fill="#B5D8C4"/>
<path d="M197.805 314.045L199.446 323.059H208.223L204.018 314.045H197.805Z" fill="#E1E1E1"/>
<path d="M190.513 323.059H199.447L197.805 314.045H190.669L190.513 323.059Z" fill="#B5D8C4"/>
<path d="M190.669 314.045H181.893V323.059H190.669V314.045Z" fill="#E1E1E1"/>
<path d="M181.892 314.045H173.114V323.059H181.892V314.045Z" fill="#B5D8C4"/>
<path d="M130.778 323.059V327.171C130.778 329.878 128.813 332.072 126.389 332.072C123.965 332.072 122 329.878 122 327.171V323.059H130.778Z" fill="#A0D5B6"/>
<path d="M139.555 323.059V327.171C139.555 329.878 137.59 332.072 135.166 332.072C132.743 332.072 130.778 329.878 130.778 327.171V323.059H139.555Z" fill="#E1E1E1"/>
<path d="M148.332 323.059V327.171C148.332 329.878 146.367 332.072 143.944 332.072C141.52 332.072 139.555 329.878 139.555 327.171V323.059H148.332Z" fill="#A0D5B6"/>
<path d="M157.108 323.059V327.171C157.108 329.878 155.143 332.072 152.721 332.072C150.296 332.072 148.332 329.878 148.332 327.171V323.059H157.108Z" fill="#E1E1E1"/>
<path d="M165.887 323.059V327.171C165.887 329.878 163.922 332.072 161.498 332.072C159.074 332.072 157.109 329.878 157.109 327.171V323.059H165.887Z" fill="#A0D5B6"/>
<path d="M134.983 314.045L130.778 323.059H122L129.365 314.045H134.983Z" fill="#B5D8C4"/>
<path d="M141.196 314.045L139.555 323.059H130.778L134.983 314.045H141.196Z" fill="#E1E1E1"/>
<path d="M148.488 323.059H139.554L141.196 314.045H148.332L148.488 323.059Z" fill="#B5D8C4"/>
<path d="M157.108 314.045H148.332V323.059H157.108V314.045Z" fill="#E1E1E1"/>
<path d="M165.887 314.045H157.109V323.059H165.887V314.045Z" fill="#B5D8C4"/>
<path d="M173.113 314.045H165.886V323.059H173.113V314.045Z" fill="#E1E1E1"/>
<path d="M169.499 332.072C167.503 332.072 165.886 330.266 165.886 328.037V323.059H173.113V328.037C173.113 330.266 171.495 332.072 169.499 332.072Z" fill="#E1E1E1"/>
<path d="M212.107 377.474H126.892V382.987H212.107V377.474Z" fill="#2C1E6D"/>
<path d="M150.653 346.467L150.522 346.467L150.522 346.337C150.522 343.942 152.469 342 154.87 342L155 342L155 342.13C155 344.525 153.054 346.467 150.653 346.467Z" fill="#F6F6F6"/>
<path d="M150.478 346.337L150.478 346.467L150.347 346.467C147.946 346.467 146 344.525 146 342.13L146 342L146.13 342C148.531 342 150.478 343.942 150.478 346.337Z" fill="#2A1A99"/>
<rect x="145" y="346" width="11" height="10" fill="url(#paint4_linear_565_1920)"/>
<defs>
<linearGradient id="paint0_linear_565_1920" x1="127.5" y1="88.6" x2="127.5" y2="403.114" gradientUnits="userSpaceOnUse">
<stop stop-color="#2A1A99"/>
<stop offset="1" stop-color="#6A6AE2"/>
</linearGradient>
<linearGradient id="paint1_linear_565_1920" x1="7.5" y1="388" x2="21" y2="296" gradientUnits="userSpaceOnUse">
<stop stop-color="#2A1A99"/>
<stop offset="1" stop-color="#6A6AE2"/>
</linearGradient>
<linearGradient id="paint2_linear_565_1920" x1="41.5" y1="459.729" x2="41.5" y2="344.343" gradientUnits="userSpaceOnUse">
<stop stop-color="#2A1A99"/>
<stop offset="1" stop-color="#6A6AE2"/>
</linearGradient>
<linearGradient id="paint3_linear_565_1920" x1="26.5" y1="359" x2="26.5" y2="383.571" gradientUnits="userSpaceOnUse">
<stop stop-color="#2A1A99"/>
<stop offset="1" stop-color="#6A6AE2"/>
</linearGradient>
<linearGradient id="paint4_linear_565_1920" x1="150.5" y1="333" x2="150.5" y2="357.571" gradientUnits="userSpaceOnUse">
<stop stop-color="#2A1A99"/>
<stop offset="1" stop-color="#6A6AE2"/>
</linearGradient>
</defs>
</svg>
