<svg width="375" height="421" viewBox="0 0 375 421" fill="none" xmlns="http://www.w3.org/2000/svg">
<rect x="111" y="255" width="55" height="128" fill="url(#paint0_linear_1989_2630)"/>
<rect x="-3" y="279" width="55" height="104" fill="url(#paint1_linear_1989_2630)"/>
<path d="M110.592 383C106.987 383 103.53 381.568 100.981 379.019C98.432 376.47 97 373.013 97 369.408V369H97.4083C101.013 369 104.47 370.432 107.019 372.981C109.568 375.53 111 378.987 111 382.592V383H110.592Z" fill="#870F78"/>
<path d="M124.592 369H125V369.408C125 373.013 123.568 376.47 121.019 379.019C118.47 381.568 115.013 383 111.408 383H111V382.592C111 378.987 112.432 375.53 114.981 372.981C117.53 370.432 120.987 369 124.592 369Z" fill="#B5D8C4"/>
<path d="M111.408 369H111V368.592C111 364.987 112.432 361.53 114.981 358.981C117.53 356.432 120.987 355 124.592 355H125V355.408C125 359.013 123.568 362.47 121.019 365.019C118.47 367.568 115.013 369 111.408 369Z" fill="#F6F6F6"/>
<path d="M97.4083 355C101.013 355 104.47 356.432 107.019 358.981C109.568 361.53 111 364.987 111 368.592V369H110.592C106.987 369 103.53 367.568 100.981 365.019C98.432 362.47 97 359.013 97 355.408V355H97.4083Z" fill="#B5D8C4"/>
<path d="M286.592 383C282.987 383 279.53 381.568 276.981 379.019C274.432 376.47 273 373.013 273 369.408V369H273.408C277.013 369 280.47 370.432 283.019 372.981C285.568 375.53 287 378.987 287 382.592V383H286.592Z" fill="#2A1A99"/>
<path d="M300.592 369H301V369.408C301 373.013 299.568 376.47 297.019 379.019C294.47 381.568 291.013 383 287.408 383H287V382.592C287 378.987 288.432 375.53 290.981 372.981C293.53 370.432 296.987 369 300.592 369Z" fill="#B5D8C4"/>
<path d="M287.408 369H287V368.592C287 364.987 288.432 361.53 290.981 358.981C293.53 356.432 296.987 355 300.592 355H301V355.408C301 359.013 299.568 362.47 297.019 365.019C294.47 367.568 291.013 369 287.408 369Z" fill="#F5F5FC"/>
<path d="M273.408 355C277.013 355 280.47 356.432 283.019 358.981C285.568 361.53 287 364.987 287 368.592V369H286.592C282.987 369 279.53 367.568 276.981 365.019C274.432 362.47 273 359.013 273 355.408V355H273.408Z" fill="#B5D8C4"/>
<path d="M315.358 383C309.694 383 304.261 380.75 300.256 376.744C296.25 372.739 294 367.306 294 361.642V361H294.642C300.306 361 305.739 363.25 309.744 367.256C313.75 371.261 316 376.694 316 382.358V383H315.358Z" fill="#2A1A99"/>
<path d="M337.358 361H338V361.642C338 367.306 335.75 372.739 331.744 376.744C327.739 380.75 322.306 383 316.642 383H316V382.358C316 376.694 318.25 371.261 322.256 367.256C326.261 363.25 331.694 361 337.358 361Z" fill="#B5D8C4"/>
<path d="M316.642 361H316V360.358C316 354.694 318.25 349.261 322.256 345.256C326.261 341.25 331.694 339 337.358 339H338V339.642C338 345.306 335.75 350.739 331.744 354.744C327.739 358.75 322.306 361 316.642 361Z" fill="#CAC7EF"/>
<path d="M294.642 339C300.306 339 305.739 341.25 309.744 345.256C313.75 349.261 316 354.694 316 360.358V361H315.358C309.694 361 304.261 358.75 300.256 354.744C296.25 350.739 294 345.306 294 339.642V339H294.642Z" fill="#B5D8C4"/>
<line x1="-88" y1="382.5" x2="1035" y2="382.5" stroke="#6A6AE2"/>
<rect x="-31.9995" y="348" width="40" height="35" rx="4" fill="url(#paint2_linear_1989_2630)"/>
<rect x="-2.99951" y="357" width="7" height="8" rx="1" fill="#D9D9D9"/>
<path d="M-25.0173 337.408L-33.8308 349.408C-34.3159 350.068 -33.8442 351 -33.0248 351H9.14627C9.94196 351 10.419 350.116 9.98197 349.451L2.09626 337.451C1.91135 337.169 1.59725 337 1.26055 337H-24.2114C-24.5297 337 -24.8289 337.152 -25.0173 337.408Z" fill="#1A3957" stroke="#1A3957"/>
<path d="M0.000411987 65L0.000411987 -7.62939e-05L65.0005 -7.62939e-05C65.0005 35.8984 35.8989 65 0.000411987 65Z" fill="#B5D8C4"/>
<path d="M0.000209808 36.9824L0.000209808 -0.000457764L36.8921 -0.000457764C36.8921 20.4247 20.375 36.9824 0.000209808 36.9824Z" fill="#EFEFFF"/>
<path d="M0.000457764 16.9707L0.000457764 0.000267029L16.9292 0.000267029C16.9319 2.22612 16.4962 4.43071 15.647 6.48818C14.7977 8.54565 13.5515 10.4157 11.9795 11.9915C10.4075 13.5674 8.54057 14.8182 6.4852 15.6725C4.42983 16.5268 2.22631 16.968 0.000457764 16.9707Z" fill="#1A3957"/>
<path d="M74 309H88V323C88 326.713 86.525 330.274 83.8995 332.899C81.274 335.525 77.713 337 74 337H60V323C60 319.287 61.475 315.726 64.1005 313.101C66.726 310.475 70.287 309 74 309Z" fill="#B5D8C4"/>
<path d="M74.0002 315.05C76.1833 315.05 78.2769 315.917 79.8206 317.461C81.3642 319.004 82.2314 321.098 82.2314 323.281C82.2314 325.464 81.3642 327.558 79.8206 329.101C78.2769 330.645 76.1833 331.512 74.0002 331.512H65.769V323.281C65.769 321.098 66.6363 319.004 68.1799 317.461C69.7235 315.917 71.8172 315.05 74.0002 315.05Z" fill="#870F78"/>
<path d="M82.4703 309H88.0703V314.6C88.0703 316.828 87.1853 318.964 85.61 320.54C84.0347 322.115 81.8981 323 79.6703 323H74.0703V317.4C74.0703 315.172 74.9553 313.036 76.5306 311.46C78.1059 309.885 80.2425 309 82.4703 309Z" fill="#F2F1FB"/>
<path d="M20 342H88V379C88 381.209 86.2091 383 84 383H24C21.7909 383 20 381.209 20 379V342Z" fill="url(#paint3_linear_1989_2630)"/>
<rect x="20" y="339" width="68" height="3" fill="#B5D8C4"/>
<rect x="27" y="363" width="20" height="19" rx="2" fill="#CAC7EF"/>
<path d="M37.6528 372.467L37.5224 372.467L37.5224 372.337C37.5224 369.941 39.4685 368 41.8696 368L42 368L42 368.13C42 370.525 40.0538 372.467 37.6528 372.467Z" fill="#F6F6F6"/>
<path d="M37.4775 372.337L37.4775 372.467L37.3471 372.467C34.9462 372.467 32.9999 370.525 32.9999 368.13L32.9999 368L33.1303 368C35.5314 368 37.4775 369.942 37.4775 372.337Z" fill="#2A1A99"/>
<rect x="32" y="372" width="11" height="10" fill="url(#paint4_linear_1989_2630)"/>
<path d="M88.4672 333H20V334.848H88.4672V333Z" fill="#2B2256"/>
<path d="M88 335H20V337H88V335Z" fill="#2B2256"/>
<path d="M84.8853 343.886V347.219C84.8853 349.413 86.478 351.191 88.4426 351.191C90.4078 351.191 91.9999 349.412 91.9999 347.219V343.886H84.8853Z" fill="#A0D5B6"/>
<path d="M77.7725 343.886V347.219C77.7725 349.413 79.3652 351.191 81.3298 351.191C83.2932 351.191 84.8859 349.412 84.8859 347.219V343.886H77.7725Z" fill="#E1E1E1"/>
<path d="M70.6577 343.886V347.219C70.6577 349.413 72.2504 351.191 74.215 351.191C76.1796 351.191 77.7724 349.412 77.7724 347.219V343.886H70.6577Z" fill="#A0D5B6"/>
<path d="M63.5449 343.886V347.219C63.5449 349.413 65.1376 351.191 67.1011 351.191C69.0663 351.191 70.6584 349.412 70.6584 347.219V343.886H63.5449Z" fill="#E1E1E1"/>
<path d="M56.4297 343.886V347.219C56.4297 349.413 58.0224 351.191 59.987 351.191C61.9516 351.191 63.5443 349.412 63.5443 347.219V343.886H56.4297Z" fill="#A0D5B6"/>
<path d="M81.4771 336.58L84.8853 343.886H91.9999L86.03 336.58H81.4771Z" fill="#B5D8C4"/>
<path d="M76.4419 336.58L77.7726 343.886H84.8861L81.4779 336.58H76.4419Z" fill="#E1E1E1"/>
<path d="M70.5317 343.886H77.7729L76.4422 336.58H70.6583L70.5317 343.886Z" fill="#B5D8C4"/>
<path d="M70.6584 336.58H63.5449V343.886H70.6584V336.58Z" fill="#E1E1E1"/>
<path d="M63.5443 336.58H56.4297V343.886H63.5443V336.58Z" fill="#B5D8C4"/>
<path d="M22.1146 343.886V347.219C22.1146 349.413 20.5219 351.191 18.5573 351.191C16.5927 351.191 15 349.412 15 347.219V343.886H22.1146Z" fill="#A0D5B6"/>
<path d="M29.2287 343.886V347.219C29.2287 349.413 27.636 351.191 25.6714 351.191C23.708 351.191 22.1152 349.412 22.1152 347.219V343.886H29.2287Z" fill="#E1E1E1"/>
<path d="M36.3432 343.886V347.219C36.3432 349.413 34.7504 351.191 32.7858 351.191C30.8212 351.191 29.2285 349.412 29.2285 347.219V343.886H36.3432Z" fill="#A0D5B6"/>
<path d="M43.4562 343.886V347.219C43.4562 349.413 41.8635 351.191 39.9001 351.191C37.9349 351.191 36.3428 349.412 36.3428 347.219V343.886H43.4562Z" fill="#E1E1E1"/>
<path d="M50.5717 343.886V347.219C50.5717 349.413 48.979 351.191 47.0144 351.191C45.0497 351.191 43.457 349.412 43.457 347.219V343.886H50.5717Z" fill="#A0D5B6"/>
<path d="M25.5229 336.58L22.1146 343.886H15L20.9699 336.58H25.5229Z" fill="#B5D8C4"/>
<path d="M30.5594 336.58L29.2287 343.886H22.1152L25.5234 336.58H30.5594Z" fill="#E1E1E1"/>
<path d="M36.4692 343.886H29.228L30.5594 336.58H36.3433L36.4692 343.886Z" fill="#B5D8C4"/>
<path d="M43.4562 336.58H36.3428V343.886H43.4562V336.58Z" fill="#E1E1E1"/>
<path d="M50.5717 336.58H43.457V343.886H50.5717V336.58Z" fill="#B5D8C4"/>
<path d="M56.429 336.58H50.5708V343.886H56.429V336.58Z" fill="#E1E1E1"/>
<path d="M53.4996 351.192C51.8819 351.192 50.5708 349.727 50.5708 347.921V343.886H56.429V347.921C56.429 349.727 55.1173 351.192 53.4996 351.192Z" fill="#E1E1E1"/>
<path d="M220.755 302H140.246V381.311H220.755V302Z" fill="#EBEBEB"/>
<path d="M217.423 325.724H185.5V377.473H217.423V325.724Z" fill="#2C1E6D"/>
<path d="M214.889 360.368H188.034V375.425H214.889V360.368Z" fill="#B3A8E8"/>
<path d="M214.889 328.351H188.034V357.446H214.889V328.351Z" fill="#B3A8E8"/>
<path d="M175.566 325.724H145.067V357.701H175.566V325.724Z" fill="#2C1E6D"/>
<path d="M173.147 328.177H147.49V355.324H173.147V328.177Z" fill="#B3A8E8"/>
<path d="M177.059 356.75H143.576V361.318H177.059V356.75Z" fill="#2C1E6D"/>
<path d="M214.889 362.995V367.943L202.635 375.425H194.526L214.889 362.995Z" fill="#D5D5D5"/>
<path d="M201.733 328.351L188.034 336.712V331.765L193.623 328.351H201.733Z" fill="#D5D5D5"/>
<path d="M161.269 328.177L147.49 336.538V331.591L153.111 328.177H161.269Z" fill="#D5D5D5"/>
<path d="M213.559 328.351L188.034 343.94V338.992L205.463 328.351H213.559Z" fill="#D5D5D5"/>
<path d="M173.08 328.177L147.49 343.766V338.818L164.963 328.177H173.08Z" fill="#D5D5D5"/>
<path d="M222.736 308.395H138.264V310.675H222.736V308.395Z" fill="#2B2256"/>
<path d="M221.416 310.675H139.586V312.955H221.416V310.675Z" fill="#2B2256"/>
<path d="M219.222 323.06V327.171C219.222 329.879 221.187 332.073 223.611 332.073C226.035 332.073 227.999 329.878 227.999 327.171V323.06H219.222Z" fill="#A0D5B6"/>
<path d="M210.446 323.06V327.171C210.446 329.879 212.411 332.073 214.835 332.073C217.258 332.073 219.223 329.878 219.223 327.171V323.06H210.446Z" fill="#E1E1E1"/>
<path d="M201.668 323.06V327.171C201.668 329.879 203.633 332.073 206.057 332.073C208.481 332.073 210.446 329.878 210.446 327.171V323.06H201.668Z" fill="#A0D5B6"/>
<path d="M192.893 323.06V327.171C192.893 329.879 194.858 332.073 197.28 332.073C199.705 332.073 201.669 329.878 201.669 327.171V323.06H192.893Z" fill="#E1E1E1"/>
<path d="M184.114 323.06V327.171C184.114 329.879 186.079 332.073 188.503 332.073C190.927 332.073 192.892 329.878 192.892 327.171V323.06H184.114Z" fill="#A0D5B6"/>
<path d="M215.017 314.045L219.222 323.059H227.999L220.634 314.045H215.017Z" fill="#B5D8C4"/>
<path d="M208.805 314.045L210.446 323.059H219.223L215.018 314.045H208.805Z" fill="#E1E1E1"/>
<path d="M201.513 323.059H210.447L208.805 314.045H201.669L201.513 323.059Z" fill="#B5D8C4"/>
<path d="M201.669 314.045H192.893V323.059H201.669V314.045Z" fill="#E1E1E1"/>
<path d="M192.892 314.045H184.114V323.059H192.892V314.045Z" fill="#B5D8C4"/>
<path d="M141.778 323.06V327.171C141.778 329.879 139.813 332.073 137.389 332.073C134.965 332.073 133 329.878 133 327.171V323.06H141.778Z" fill="#A0D5B6"/>
<path d="M150.555 323.06V327.171C150.555 329.879 148.59 332.073 146.166 332.073C143.743 332.073 141.778 329.878 141.778 327.171V323.06H150.555Z" fill="#E1E1E1"/>
<path d="M159.332 323.06V327.171C159.332 329.879 157.367 332.073 154.944 332.073C152.52 332.073 150.555 329.878 150.555 327.171V323.06H159.332Z" fill="#A0D5B6"/>
<path d="M168.108 323.06V327.171C168.108 329.879 166.143 332.073 163.721 332.073C161.296 332.073 159.332 329.878 159.332 327.171V323.06H168.108Z" fill="#E1E1E1"/>
<path d="M176.887 323.06V327.171C176.887 329.879 174.922 332.073 172.498 332.073C170.074 332.073 168.109 329.878 168.109 327.171V323.06H176.887Z" fill="#A0D5B6"/>
<path d="M145.983 314.045L141.778 323.059H133L140.365 314.045H145.983Z" fill="#B5D8C4"/>
<path d="M152.196 314.045L150.555 323.059H141.778L145.983 314.045H152.196Z" fill="#E1E1E1"/>
<path d="M159.488 323.059H150.554L152.196 314.045H159.332L159.488 323.059Z" fill="#B5D8C4"/>
<path d="M168.108 314.045H159.332V323.059H168.108V314.045Z" fill="#E1E1E1"/>
<path d="M176.887 314.045H168.109V323.059H176.887V314.045Z" fill="#B5D8C4"/>
<path d="M184.113 314.045H176.886V323.059H184.113V314.045Z" fill="#E1E1E1"/>
<path d="M180.499 332.072C178.503 332.072 176.886 330.266 176.886 328.037V323.059H184.113V328.037C184.113 330.266 182.495 332.072 180.499 332.072Z" fill="#E1E1E1"/>
<path d="M223.107 377.474H137.892V382.986H223.107V377.474Z" fill="#2C1E6D"/>
<path d="M161.653 346.467L161.522 346.467L161.522 346.337C161.522 343.941 163.469 342 165.87 342L166 342L166 342.13C166 344.525 164.054 346.467 161.653 346.467Z" fill="#F6F6F6"/>
<path d="M161.478 346.337L161.478 346.467L161.347 346.467C158.946 346.467 157 344.525 157 342.13L157 342L157.13 342C159.531 342 161.478 343.942 161.478 346.337Z" fill="#2A1A99"/>
<rect x="156" y="346" width="11" height="10" fill="url(#paint5_linear_1989_2630)"/>
<defs>
<linearGradient id="paint0_linear_1989_2630" x1="138.5" y1="88.6" x2="138.5" y2="403.114" gradientUnits="userSpaceOnUse">
<stop stop-color="#1A3957"/>
<stop offset="1" stop-color="#1A3957"/>
</linearGradient>
<linearGradient id="paint1_linear_1989_2630" x1="18.5" y1="388" x2="32" y2="296" gradientUnits="userSpaceOnUse">
<stop stop-color="#69B689"/>
<stop offset="1" stop-color="#A0D5B6"/>
</linearGradient>
<linearGradient id="paint2_linear_1989_2630" x1="-11.9995" y1="302.5" x2="-11.9995" y2="388.5" gradientUnits="userSpaceOnUse">
<stop stop-color="#2A1A99"/>
<stop offset="1" stop-color="#6A6AE2"/>
</linearGradient>
<linearGradient id="paint3_linear_1989_2630" x1="52.5" y1="459.729" x2="52.5" y2="344.343" gradientUnits="userSpaceOnUse">
<stop stop-color="#2A1A99"/>
<stop offset="1" stop-color="#6A6AE2"/>
</linearGradient>
<linearGradient id="paint4_linear_1989_2630" x1="37.5" y1="359" x2="37.5" y2="383.571" gradientUnits="userSpaceOnUse">
<stop stop-color="#2A1A99"/>
<stop offset="1" stop-color="#6A6AE2"/>
</linearGradient>
<linearGradient id="paint5_linear_1989_2630" x1="161.5" y1="333" x2="161.5" y2="357.571" gradientUnits="userSpaceOnUse">
<stop stop-color="#2A1A99"/>
<stop offset="1" stop-color="#6A6AE2"/>
</linearGradient>
</defs>
</svg>
