<svg width="354" height="420" viewBox="0 0 354 420" fill="none" xmlns="http://www.w3.org/2000/svg">
<rect x="178" y="255" width="55" height="128" fill="url(#paint0_linear_565_1730)"/>
<rect x="64" y="279" width="55" height="104" fill="url(#paint1_linear_565_1730)"/>
<path d="M177.592 383C173.987 383 170.53 381.568 167.981 379.019C165.432 376.47 164 373.013 164 369.408V369H164.408C168.013 369 171.47 370.432 174.019 372.981C176.568 375.53 178 378.987 178 382.592V383H177.592Z" fill="#2A1A99"/>
<path d="M191.592 369H192V369.408C192 373.013 190.568 376.47 188.019 379.019C185.47 381.568 182.013 383 178.408 383H178V382.592C178 378.987 179.432 375.53 181.981 372.981C184.53 370.432 187.987 369 191.592 369Z" fill="#B5D8C4"/>
<path d="M178.408 369H178V368.592C178 364.987 179.432 361.53 181.981 358.981C184.53 356.432 187.987 355 191.592 355H192V355.408C192 359.013 190.568 362.47 188.019 365.019C185.47 367.568 182.013 369 178.408 369Z" fill="#F5F5FC"/>
<path d="M164.408 355C168.013 355 171.47 356.432 174.019 358.981C176.568 361.53 178 364.987 178 368.592V369H177.592C173.987 369 170.53 367.568 167.981 365.019C165.432 362.47 164 359.013 164 355.408V355H164.408Z" fill="#B5D8C4"/>
<path d="M353.592 383C349.987 383 346.53 381.568 343.981 379.019C341.432 376.47 340 373.013 340 369.408V369H340.408C344.013 369 347.47 370.432 350.019 372.981C352.568 375.53 354 378.987 354 382.592V383H353.592Z" fill="#2A1A99"/>
<path d="M340.408 355C344.013 355 347.47 356.432 350.019 358.981C352.568 361.53 354 364.987 354 368.592V369H353.592C349.987 369 346.53 367.568 343.981 365.019C341.432 362.47 340 359.013 340 355.408V355H340.408Z" fill="#B5D8C4"/>
<rect x="35" y="348" width="40" height="35" rx="4" fill="url(#paint2_linear_565_1730)"/>
<rect x="40" y="368" width="9" height="14" rx="2" fill="#D9D9D9"/>
<rect x="55" y="357" width="7" height="8" rx="1" fill="#D9D9D9"/>
<rect x="64" y="357" width="7" height="8" rx="1" fill="#D9D9D9"/>
<path d="M53.268 313C54.0378 311.667 55.9622 311.667 56.732 313L76.6506 347.5C77.4204 348.833 76.4582 350.5 74.9186 350.5H35.0814C33.5418 350.5 32.5796 348.833 33.3494 347.5L53.268 313Z" fill="#6A6AE2"/>
<path d="M28 396C20.3062 396 14.0692 389.778 14.0692 382.103C21.763 382.103 28 388.325 28 396Z" fill="#2A1A99"/>
<path d="M0.405098 396L-0.00066185 396L-0.000661832 395.595C-0.000661507 388.143 6.05425 382.103 13.5244 382.103L13.9302 382.103L13.9302 382.508C13.9302 389.959 7.87527 396 0.405098 396Z" fill="#B5D8C4"/>
<path d="M14.4749 381.896L14.0692 381.896L14.0692 381.492C14.0692 374.04 20.1241 368 27.5942 368L28 368L28 368.405C28 375.856 21.9451 381.896 14.4749 381.896Z" fill="#B5D8C4"/>
<path d="M13.9302 381.492L13.9302 381.897L13.5244 381.897C6.05471 381.897 -0.000662193 375.856 -0.000661868 368.405L-0.00066185 368L0.405098 368C7.87527 368 13.9302 374.041 13.9302 381.492Z" fill="#2A1A99"/>
<path d="M245 146.524C245 147.989 245.582 149.394 246.618 150.429C247.654 151.465 249.059 152.047 250.524 152.047C251.989 152.047 253.394 151.465 254.43 150.429C255.466 149.394 256.048 147.989 256.048 146.524C256.048 145.059 255.466 143.654 254.43 142.618C253.394 141.582 251.989 141 250.524 141C249.059 141 247.654 141.582 246.618 142.618C245.582 143.654 245 145.059 245 146.524Z" fill="#B5D8C4"/>
<path d="M289 148.524C289 149.989 289.582 151.394 290.618 152.429C291.654 153.465 293.059 154.047 294.524 154.047C295.989 154.047 297.394 153.465 298.43 152.429C299.466 151.394 300.048 149.989 300.048 148.524C300.048 147.059 299.466 145.654 298.43 144.618C297.394 143.582 295.989 143 294.524 143C293.059 143 291.654 143.582 290.618 144.618C289.582 145.654 289 147.059 289 148.524Z" fill="#B5D8C4"/>
<path d="M258 126.524C258 127.989 258.582 129.394 259.618 130.43C260.654 131.466 262.059 132.048 263.524 132.048C264.989 132.048 266.394 131.466 267.43 130.43C268.466 129.394 269.048 127.989 269.048 126.524C269.048 125.059 268.466 123.654 267.43 122.618C266.394 121.582 264.989 121 263.524 121C262.059 121 260.654 121.582 259.618 122.618C258.582 123.654 258 125.059 258 126.524Z" fill="#B5D8C4"/>
<path d="M289.048 165.524C289.048 164.059 288.466 162.654 287.43 161.618C286.395 160.582 284.99 160 283.525 160C282.06 160 280.655 160.582 279.619 161.618C278.583 162.654 278.001 164.059 278.001 165.524C278.001 166.989 278.583 168.394 279.619 169.43C280.655 170.466 282.06 171.048 283.525 171.048C284.99 171.048 286.395 170.466 287.43 169.43C288.466 168.394 289.048 166.989 289.048 165.524Z" fill="#B5D8C4"/>
<path d="M281 129.524C281 130.989 281.582 132.394 282.618 133.43C283.654 134.466 285.059 135.048 286.524 135.048C287.989 135.048 289.394 134.466 290.43 133.43C291.466 132.394 292.048 130.989 292.048 129.524C292.048 128.059 291.466 126.654 290.43 125.618C289.394 124.582 287.989 124 286.524 124C285.059 124 283.654 124.582 282.618 125.618C281.582 126.654 281 128.059 281 129.524Z" fill="#B5D8C4"/>
<path d="M266.048 165.524C266.048 164.059 265.466 162.654 264.43 161.618C263.395 160.582 261.99 160 260.525 160C259.06 160 257.655 160.582 256.619 161.618C255.583 162.654 255.001 164.059 255.001 165.524C255.001 166.989 255.583 168.394 256.619 169.43C257.655 170.466 259.06 171.048 260.525 171.048C261.99 171.048 263.395 170.466 264.43 169.43C265.466 168.394 266.048 166.989 266.048 165.524Z" fill="#B5D8C4"/>
<path d="M258 146.715C258 148.619 258.375 150.504 259.104 152.264C259.833 154.023 260.901 155.621 262.247 156.968C263.594 158.314 265.192 159.382 266.951 160.111C268.711 160.84 270.596 161.215 272.5 161.215C274.405 161.215 276.29 160.84 278.049 160.111C279.809 159.382 281.407 158.314 282.754 156.968C284.1 155.621 285.168 154.023 285.897 152.264C286.626 150.504 287.001 148.619 287 146.715C287 144.811 286.625 142.925 285.897 141.166C285.168 139.407 284.1 137.808 282.753 136.462C281.407 135.115 279.809 134.047 278.049 133.318C276.29 132.59 274.404 132.215 272.5 132.215C268.655 132.215 264.967 133.742 262.247 136.462C259.528 139.181 258 142.869 258 146.715Z" fill="#1A3957"/>
<path d="M141 309H155V323C155 326.713 153.525 330.274 150.899 332.899C148.274 335.525 144.713 337 141 337H127V323C127 319.287 128.475 315.726 131.101 313.101C133.726 310.475 137.287 309 141 309Z" fill="#B5D8C4"/>
<path d="M141 315.05C143.183 315.05 145.277 315.918 146.821 317.461C148.364 319.005 149.231 321.098 149.231 323.281C149.231 325.465 148.364 327.558 146.821 329.102C145.277 330.645 143.183 331.513 141 331.513H132.769V323.281C132.769 321.098 133.636 319.005 135.18 317.461C136.724 315.918 138.817 315.05 141 315.05Z" fill="#1A3957"/>
<path d="M149.47 309H155.07V314.6C155.07 316.828 154.185 318.964 152.61 320.54C151.035 322.115 148.898 323 146.67 323H141.07V317.4C141.07 315.172 141.955 313.036 143.531 311.46C145.106 309.885 147.242 309 149.47 309Z" fill="#EFEFFF"/>
<path d="M87 342H155V379C155 381.209 153.209 383 151 383H91C88.7909 383 87 381.209 87 379V342Z" fill="url(#paint3_linear_565_1730)"/>
<rect x="87" y="339" width="68" height="3" fill="#B5D8C4"/>
<rect x="94" y="363" width="20" height="19" rx="2" fill="#CAC7EF"/>
<path d="M104.653 372.467L104.522 372.467L104.522 372.337C104.522 369.942 106.469 368 108.87 368L109 368L109 368.13C109 370.525 107.054 372.467 104.653 372.467Z" fill="#F6F6F6"/>
<path d="M104.478 372.337L104.478 372.467L104.347 372.467C101.946 372.467 99.9999 370.525 99.9999 368.13L99.9999 368L100.13 368C102.531 368 104.478 369.942 104.478 372.337Z" fill="#2A1A99"/>
<rect x="99" y="372" width="11" height="10" fill="url(#paint4_linear_565_1730)"/>
<path d="M155.467 333H87V334.848H155.467V333Z" fill="#2B2256"/>
<path d="M155 335H87V337H155V335Z" fill="#2B2256"/>
<path d="M151.885 343.886V347.219C151.885 349.414 153.478 351.192 155.443 351.192C157.408 351.192 159 349.413 159 347.219V343.886H151.885Z" fill="#A0D5B6"/>
<path d="M144.772 343.886V347.219C144.772 349.414 146.365 351.192 148.33 351.192C150.293 351.192 151.886 349.413 151.886 347.219V343.886H144.772Z" fill="#E1E1E1"/>
<path d="M137.658 343.886V347.219C137.658 349.414 139.25 351.192 141.215 351.192C143.18 351.192 144.772 349.413 144.772 347.219V343.886H137.658Z" fill="#A0D5B6"/>
<path d="M130.545 343.886V347.219C130.545 349.414 132.138 351.192 134.101 351.192C136.066 351.192 137.658 349.413 137.658 347.219V343.886H130.545Z" fill="#E1E1E1"/>
<path d="M123.43 343.886V347.219C123.43 349.414 125.022 351.192 126.987 351.192C128.952 351.192 130.544 349.413 130.544 347.219V343.886H123.43Z" fill="#A0D5B6"/>
<path d="M148.477 336.58L151.885 343.886H159L153.03 336.58H148.477Z" fill="#B5D8C4"/>
<path d="M143.442 336.58L144.773 343.886H151.886L148.478 336.58H143.442Z" fill="#E1E1E1"/>
<path d="M137.532 343.886H144.773L143.442 336.58H137.658L137.532 343.886Z" fill="#B5D8C4"/>
<path d="M137.658 336.58H130.545V343.886H137.658V336.58Z" fill="#E1E1E1"/>
<path d="M130.544 336.58H123.43V343.886H130.544V336.58Z" fill="#B5D8C4"/>
<path d="M89.1146 343.886V347.219C89.1146 349.414 87.5219 351.192 85.5573 351.192C83.5927 351.192 82 349.413 82 347.219V343.886H89.1146Z" fill="#A0D5B6"/>
<path d="M96.2287 343.886V347.219C96.2287 349.414 94.636 351.192 92.6714 351.192C90.708 351.192 89.1152 349.413 89.1152 347.219V343.886H96.2287Z" fill="#E1E1E1"/>
<path d="M103.343 343.886V347.219C103.343 349.414 101.75 351.192 99.7858 351.192C97.8212 351.192 96.2285 349.413 96.2285 347.219V343.886H103.343Z" fill="#A0D5B6"/>
<path d="M110.456 343.886V347.219C110.456 349.414 108.864 351.192 106.9 351.192C104.935 351.192 103.343 349.413 103.343 347.219V343.886H110.456Z" fill="#E1E1E1"/>
<path d="M117.572 343.886V347.219C117.572 349.414 115.979 351.192 114.014 351.192C112.05 351.192 110.457 349.413 110.457 347.219V343.886H117.572Z" fill="#A0D5B6"/>
<path d="M92.5229 336.58L89.1146 343.886H82L87.9699 336.58H92.5229Z" fill="#B5D8C4"/>
<path d="M97.5594 336.58L96.2287 343.886H89.1152L92.5234 336.58H97.5594Z" fill="#E1E1E1"/>
<path d="M103.469 343.886H96.228L97.5594 336.58H103.343L103.469 343.886Z" fill="#B5D8C4"/>
<path d="M110.456 336.58H103.343V343.886H110.456V336.58Z" fill="#E1E1E1"/>
<path d="M117.572 336.58H110.457V343.886H117.572V336.58Z" fill="#B5D8C4"/>
<path d="M123.429 336.58H117.571V343.886H123.429V336.58Z" fill="#E1E1E1"/>
<path d="M120.5 351.191C118.882 351.191 117.571 349.727 117.571 347.92V343.885H123.429V347.92C123.429 349.727 122.117 351.191 120.5 351.191Z" fill="#E1E1E1"/>
<path d="M287.755 302H207.246V381.311H287.755V302Z" fill="#EBEBEB"/>
<path d="M284.423 325.723H252.5V377.473H284.423V325.723Z" fill="#2C1E6D"/>
<path d="M281.889 360.368H255.034V375.425H281.889V360.368Z" fill="#B3A8E8"/>
<path d="M281.889 328.351H255.034V357.446H281.889V328.351Z" fill="#B3A8E8"/>
<path d="M242.566 325.723H212.067V357.7H242.566V325.723Z" fill="#2C1E6D"/>
<path d="M240.147 328.176H214.49V355.323H240.147V328.176Z" fill="#B3A8E8"/>
<path d="M244.059 356.75H210.576V361.318H244.059V356.75Z" fill="#2C1E6D"/>
<path d="M281.889 362.995V367.943L269.635 375.425H261.526L281.889 362.995Z" fill="#D5D5D5"/>
<path d="M268.733 328.351L255.034 336.713V331.765L260.623 328.351H268.733Z" fill="#D5D5D5"/>
<path d="M228.269 328.176L214.49 336.538V331.59L220.111 328.176H228.269Z" fill="#D5D5D5"/>
<path d="M280.559 328.351L255.034 343.94V338.993L272.463 328.351H280.559Z" fill="#D5D5D5"/>
<path d="M240.08 328.176L214.49 343.765V338.818L231.963 328.176H240.08Z" fill="#D5D5D5"/>
<path d="M289.736 308.395H205.264V310.675H289.736V308.395Z" fill="#2B2256"/>
<path d="M288.416 310.675H206.586V312.955H288.416V310.675Z" fill="#2B2256"/>
<path d="M286.222 323.059V327.171C286.222 329.878 288.187 332.072 290.611 332.072C293.035 332.072 294.999 329.878 294.999 327.171V323.059H286.222Z" fill="#A0D5B6"/>
<path d="M277.446 323.059V327.171C277.446 329.878 279.411 332.072 281.835 332.072C284.258 332.072 286.223 329.878 286.223 327.171V323.059H277.446Z" fill="#E1E1E1"/>
<path d="M268.668 323.059V327.171C268.668 329.878 270.633 332.072 273.057 332.072C275.481 332.072 277.446 329.878 277.446 327.171V323.059H268.668Z" fill="#A0D5B6"/>
<path d="M259.893 323.059V327.171C259.893 329.878 261.858 332.072 264.28 332.072C266.705 332.072 268.669 329.878 268.669 327.171V323.059H259.893Z" fill="#E1E1E1"/>
<path d="M251.114 323.059V327.171C251.114 329.878 253.079 332.072 255.503 332.072C257.927 332.072 259.892 329.878 259.892 327.171V323.059H251.114Z" fill="#A0D5B6"/>
<path d="M282.017 314.045L286.222 323.059H294.999L287.634 314.045H282.017Z" fill="#B5D8C4"/>
<path d="M275.805 314.045L277.446 323.059H286.223L282.018 314.045H275.805Z" fill="#E1E1E1"/>
<path d="M268.513 323.059H277.447L275.805 314.045H268.669L268.513 323.059Z" fill="#B5D8C4"/>
<path d="M268.669 314.045H259.893V323.059H268.669V314.045Z" fill="#E1E1E1"/>
<path d="M259.892 314.045H251.114V323.059H259.892V314.045Z" fill="#B5D8C4"/>
<path d="M208.778 323.059V327.171C208.778 329.878 206.813 332.072 204.389 332.072C201.965 332.072 200 329.878 200 327.171V323.059H208.778Z" fill="#A0D5B6"/>
<path d="M217.555 323.059V327.171C217.555 329.878 215.59 332.072 213.166 332.072C210.743 332.072 208.778 329.878 208.778 327.171V323.059H217.555Z" fill="#E1E1E1"/>
<path d="M226.332 323.059V327.171C226.332 329.878 224.367 332.072 221.944 332.072C219.52 332.072 217.555 329.878 217.555 327.171V323.059H226.332Z" fill="#A0D5B6"/>
<path d="M235.108 323.059V327.171C235.108 329.878 233.143 332.072 230.721 332.072C228.296 332.072 226.332 329.878 226.332 327.171V323.059H235.108Z" fill="#E1E1E1"/>
<path d="M243.887 323.059V327.171C243.887 329.878 241.922 332.072 239.498 332.072C237.074 332.072 235.109 329.878 235.109 327.171V323.059H243.887Z" fill="#A0D5B6"/>
<path d="M212.983 314.045L208.778 323.059H200L207.365 314.045H212.983Z" fill="#B5D8C4"/>
<path d="M219.196 314.045L217.555 323.059H208.778L212.983 314.045H219.196Z" fill="#E1E1E1"/>
<path d="M226.488 323.059H217.554L219.196 314.045H226.332L226.488 323.059Z" fill="#B5D8C4"/>
<path d="M235.108 314.045H226.332V323.059H235.108V314.045Z" fill="#E1E1E1"/>
<path d="M243.887 314.045H235.109V323.059H243.887V314.045Z" fill="#B5D8C4"/>
<path d="M251.113 314.045H243.886V323.059H251.113V314.045Z" fill="#E1E1E1"/>
<path d="M247.499 332.072C245.503 332.072 243.886 330.266 243.886 328.037V323.059H251.113V328.037C251.113 330.266 249.495 332.072 247.499 332.072Z" fill="#E1E1E1"/>
<path d="M290.107 377.474H204.892V382.987H290.107V377.474Z" fill="#2C1E6D"/>
<path d="M228.653 346.467L228.522 346.467L228.522 346.337C228.522 343.942 230.469 342 232.87 342L233 342L233 342.13C233 344.525 231.054 346.467 228.653 346.467Z" fill="#F6F6F6"/>
<path d="M228.478 346.337L228.478 346.467L228.347 346.467C225.946 346.467 224 344.525 224 342.13L224 342L224.13 342C226.531 342 228.478 343.942 228.478 346.337Z" fill="#2A1A99"/>
<rect x="223" y="346" width="11" height="10" fill="url(#paint5_linear_565_1730)"/>
<defs>
<linearGradient id="paint0_linear_565_1730" x1="205.5" y1="88.6" x2="205.5" y2="403.114" gradientUnits="userSpaceOnUse">
<stop stop-color="#2A1A99"/>
<stop offset="1" stop-color="#6A6AE2"/>
</linearGradient>
<linearGradient id="paint1_linear_565_1730" x1="85.5" y1="388" x2="99" y2="296" gradientUnits="userSpaceOnUse">
<stop stop-color="#2A1A99"/>
<stop offset="1" stop-color="#6A6AE2"/>
</linearGradient>
<linearGradient id="paint2_linear_565_1730" x1="55" y1="302.5" x2="55" y2="388.5" gradientUnits="userSpaceOnUse">
<stop stop-color="#2A1A99"/>
<stop offset="1" stop-color="#6A6AE2"/>
</linearGradient>
<linearGradient id="paint3_linear_565_1730" x1="119.5" y1="459.729" x2="119.5" y2="344.343" gradientUnits="userSpaceOnUse">
<stop stop-color="#2A1A99"/>
<stop offset="1" stop-color="#6A6AE2"/>
</linearGradient>
<linearGradient id="paint4_linear_565_1730" x1="104.5" y1="359" x2="104.5" y2="383.571" gradientUnits="userSpaceOnUse">
<stop stop-color="#2A1A99"/>
<stop offset="1" stop-color="#6A6AE2"/>
</linearGradient>
<linearGradient id="paint5_linear_565_1730" x1="228.5" y1="333" x2="228.5" y2="357.571" gradientUnits="userSpaceOnUse">
<stop stop-color="#2A1A99"/>
<stop offset="1" stop-color="#6A6AE2"/>
</linearGradient>
</defs>
</svg>
