<svg width="119" height="119" viewBox="0 0 119 119" fill="none" xmlns="http://www.w3.org/2000/svg">
<path d="M118.727 118.157C86.19 118.157 59.8141 91.8425 59.8141 59.3818C92.3507 59.3818 118.727 85.6967 118.727 118.157Z" fill="#F6F6F6"/>
<path d="M2.02905 118.158L0.313126 118.158L0.313126 116.446C0.313127 84.9303 25.9189 59.3822 57.5097 59.3822L59.2256 59.3822L59.2256 61.0939C59.2256 92.6091 33.6198 118.158 2.02905 118.158Z" fill="#2A1A99"/>
<path d="M61.53 58.5068L59.8141 58.5068L59.8141 56.7951C59.8141 25.2794 85.4199 -0.268728 117.011 -0.268726L118.727 -0.268726L118.727 1.443C118.727 32.9582 93.1208 58.5068 61.53 58.5068Z" fill="#2A1A99"/>
<path d="M59.2256 56.7953L59.2256 58.507L57.5097 58.507C25.9208 58.507 0.313124 32.9584 0.313126 1.44317L0.313126 -0.268557L2.02905 -0.268557C33.6198 -0.268556 59.2256 25.2801 59.2256 56.7953Z" fill="#928BEB"/>
</svg>
