<svg width="184" height="53" viewBox="0 0 184 53" fill="none" xmlns="http://www.w3.org/2000/svg">
<path d="M26.4038 49.3437C39.3526 49.3437 49.8498 38.8465 49.8498 25.8977C49.8498 12.9488 39.3526 2.45166 26.4038 2.45166C13.4549 2.45166 2.95776 12.9488 2.95776 25.8977C2.95776 38.8465 13.4549 49.3437 26.4038 49.3437Z" fill="#1A3957"/>
<path d="M13.8538 14.984V40.062H38.9318V14.984H13.8538Z" fill="#CAC7EF"/>
<path d="M26.3891 18.5977L17.4668 27.52L26.3954 36.4487L35.3177 27.5264L26.3891 18.5977Z" fill="#1A3957"/>
<path d="M26.574 16.543L17.2286 12.0538L21.721 7.13562L26.574 16.543Z" fill="#CAC7EF"/>
<path d="M25.7402 16.4419L30.2294 7.09649L35.1476 11.5889L25.7402 16.4419Z" fill="#CAC7EF"/>
<path d="M28.1211 16.8838C27.7759 17.229 27.3362 17.464 26.8574 17.5592C26.3787 17.6545 25.8824 17.6056 25.4315 17.4188C24.9805 17.232 24.5951 16.9157 24.3239 16.5098C24.0527 16.104 23.9079 15.6268 23.9079 15.1387C23.9079 14.6505 24.0527 14.1734 24.3239 13.7675C24.5951 13.3617 24.9805 13.0453 25.4315 12.8585C25.8824 12.6717 26.3787 12.6229 26.8574 12.7181C27.3362 12.8133 27.7759 13.0484 28.1211 13.3935C28.5839 13.8564 28.8439 14.4841 28.8439 15.1387C28.8439 15.7932 28.5839 16.421 28.1211 16.8838Z" fill="#CAC7EF"/>
<path d="M63.5376 34.9086C63.8398 34.9133 64.1336 34.8093 64.3656 34.6156C64.4834 34.517 64.5768 34.3925 64.6383 34.2518C64.6999 34.1111 64.7281 33.958 64.7206 33.8046V22.6476L72.6686 34.0636C72.8576 34.3273 73.1091 34.54 73.4006 34.6826C73.6606 34.8221 73.9496 34.8991 74.2446 34.9076C74.4399 34.9112 74.634 34.8752 74.815 34.8016C74.996 34.728 75.1602 34.6185 75.2976 34.4796C75.4453 34.3261 75.5599 34.144 75.6344 33.9445C75.7089 33.745 75.7416 33.5323 75.7306 33.3196V19.8886C75.739 19.734 75.7119 19.5796 75.6514 19.4371C75.5909 19.2946 75.4986 19.1678 75.3816 19.0666C75.1522 18.8724 74.86 18.7683 74.5596 18.7736C74.258 18.769 73.9653 18.8758 73.7376 19.0736C73.6215 19.1744 73.5298 19.3001 73.4694 19.4415C73.4089 19.5828 73.3813 19.736 73.3886 19.8896V31.1596L65.4176 19.6596C65.2245 19.3826 64.9653 19.1581 64.6636 19.0066C64.3925 18.8639 64.0918 18.7868 63.7856 18.7816C63.596 18.7771 63.4077 18.8129 63.2331 18.8867C63.0584 18.9605 62.9015 19.0705 62.7726 19.2096C62.4902 19.5279 62.3447 19.9447 62.3676 20.3696V33.8046C62.359 33.9583 62.3861 34.1119 62.4466 34.2534C62.5071 34.3949 62.5995 34.5206 62.7166 34.6206C62.9471 34.8115 63.2383 34.9136 63.5376 34.9086ZM80.5156 34.9086C80.8121 34.9137 81.0997 34.8065 81.3206 34.6086C81.4356 34.5036 81.5261 34.3745 81.5854 34.2305C81.6447 34.0865 81.6714 33.9311 81.6636 33.7756V24.8206C81.6714 24.6655 81.6453 24.5105 81.5869 24.3666C81.5285 24.2227 81.4393 24.0933 81.3256 23.9876C81.1108 23.7906 80.8289 23.6833 80.5376 23.6876C80.241 23.6825 79.9535 23.7896 79.7326 23.9876C79.6175 24.0925 79.5271 24.2216 79.4678 24.3657C79.4085 24.5097 79.3818 24.665 79.3896 24.8206V33.7716C79.3794 33.9276 79.4034 34.0839 79.4599 34.2297C79.5164 34.3754 79.604 34.5071 79.7166 34.6156C79.9361 34.8117 80.2213 34.9165 80.5156 34.9086ZM80.5266 21.2176C80.9012 21.2344 81.2673 21.1029 81.5456 20.8516C81.6749 20.7278 81.7764 20.5779 81.8433 20.4118C81.9102 20.2458 81.941 20.0674 81.9336 19.8886C81.9405 19.7095 81.9101 19.5309 81.8441 19.3642C81.7782 19.1975 81.6782 19.0464 81.5506 18.9206C81.415 18.7943 81.2555 18.6964 81.0816 18.6325C80.9076 18.5686 80.7227 18.5401 80.5376 18.5486C80.1567 18.5313 79.7845 18.665 79.5016 18.9206C79.371 19.0447 79.2683 19.1953 79.2004 19.3622C79.1325 19.5291 79.1008 19.7085 79.1076 19.8886C79.1004 20.0679 79.1318 20.2468 79.1998 20.4129C79.2678 20.5791 79.3707 20.7287 79.5016 20.8516C79.7828 21.1026 80.1499 21.234 80.5266 21.2176ZM89.5786 35.0886C90.804 35.1704 92.0192 34.8197 93.0126 34.0976C93.1364 33.9996 93.2386 33.877 93.3126 33.7376C93.3747 33.6231 93.4089 33.4957 93.4126 33.3656C93.4124 33.2748 93.3951 33.1849 93.3616 33.1006C93.33 33.0172 93.2801 32.942 93.2156 32.8806C93.0833 32.7556 92.9075 32.6871 92.7256 32.6896C92.6398 32.69 92.5545 32.7031 92.4726 32.7286C92.3816 32.7571 92.2961 32.8007 92.2196 32.8576C91.4893 33.338 90.6271 33.5782 89.7536 33.5446C89.0917 33.5612 88.4434 33.3552 87.9126 32.9596C87.3971 32.5675 87.0044 32.0363 86.7806 31.4286C86.5317 30.7472 86.4096 30.0259 86.4206 29.3006C86.3646 28.1895 86.697 27.0935 87.3606 26.2006C87.6568 25.8237 88.0375 25.5218 88.472 25.3192C88.9064 25.1167 89.3825 25.0191 89.8616 25.0346C90.6277 25.0276 91.3805 25.2354 92.0346 25.6346C92.1812 25.7215 92.3482 25.7681 92.5186 25.7696C92.6456 25.7716 92.7712 25.7428 92.8846 25.6856C92.9907 25.6318 93.0802 25.5503 93.1436 25.4496C93.2083 25.3509 93.243 25.2356 93.2436 25.1176C93.2353 24.9735 93.192 24.8336 93.1174 24.71C93.0428 24.5865 92.9392 24.483 92.8156 24.4086C92.4193 24.128 91.9803 23.9133 91.5156 23.7726C90.9335 23.5889 90.3259 23.4995 89.7156 23.5076C88.6839 23.4879 87.6675 23.7589 86.7826 24.2896C85.949 24.7918 85.2725 25.5171 84.8296 26.3836C84.3728 27.2848 84.1408 28.2832 84.1536 29.2936C84.1396 30.304 84.3593 31.304 84.7956 32.2156C85.214 33.0795 85.8704 33.8059 86.6876 34.3096C87.5575 34.8399 88.56 35.1102 89.5786 35.0886ZM100.658 35.0886C102.206 35.1237 103.71 34.5726 104.869 33.5456C104.981 33.4581 105.071 33.3463 105.134 33.2186C105.189 33.1023 105.218 32.9753 105.218 32.8466C105.217 32.7125 105.182 32.5808 105.118 32.4636C105.057 32.3473 104.968 32.2485 104.859 32.1766C104.775 32.1208 104.679 32.0856 104.58 32.0738C104.48 32.062 104.379 32.0739 104.285 32.1086C104.206 32.1383 104.133 32.1779 104.065 32.2266C103.577 32.5902 103.052 32.9016 102.5 33.1556C101.967 33.3889 101.392 33.5058 100.811 33.4986C99.884 33.5252 98.9835 33.1902 98.2996 32.5646C97.956 32.191 97.6906 31.7526 97.5189 31.275C97.3471 30.7974 97.2726 30.2904 97.2996 29.7836H104.843C104.945 29.7906 105.047 29.7729 105.142 29.7318C105.236 29.6907 105.318 29.6275 105.383 29.5476C105.509 29.3706 105.572 29.1566 105.563 28.9396C105.555 28.2346 105.443 27.5347 105.231 26.8626C105.032 26.2426 104.727 25.6617 104.331 25.1456C103.911 24.6179 103.365 24.205 102.743 23.9456C101.265 23.3518 99.613 23.3618 98.1426 23.9736C97.4828 24.2596 96.8959 24.6906 96.4256 25.2346C95.9706 25.772 95.6178 26.3882 95.3846 27.0526C95.1381 27.7503 95.0143 28.4855 95.0186 29.2256C94.9772 30.0071 95.0951 30.7889 95.3652 31.5234C95.6352 32.258 96.0518 32.93 96.5896 33.4986C97.1261 34.0236 97.7629 34.435 98.4621 34.7082C99.1612 34.9814 99.9073 35.1107 100.658 35.0886ZM97.3246 28.4116C97.3603 27.9919 97.4532 27.5791 97.6006 27.1846C97.7457 26.7966 97.9509 26.4338 98.2086 26.1096C98.4767 25.7761 98.8192 25.51 99.2086 25.3326C99.6319 25.1373 100.093 25.0393 100.56 25.0456C100.975 25.0189 101.392 25.0911 101.774 25.2565C102.156 25.4218 102.494 25.6754 102.76 25.9966C103.286 26.6946 103.585 27.5378 103.616 28.4116H97.3246ZM119.674 34.9196C120.004 34.9246 120.325 34.8062 120.574 34.5876C120.702 34.4729 120.803 34.3309 120.869 34.1721C120.936 34.0132 120.965 33.8415 120.957 33.6696V20.8126H124.999C125.137 20.8202 125.275 20.7973 125.404 20.7454C125.532 20.6936 125.647 20.6141 125.742 20.5126C125.92 20.3151 126.016 20.0574 126.012 19.7916C126.015 19.5296 125.918 19.2761 125.742 19.0826C125.647 18.9811 125.532 18.9016 125.404 18.8497C125.275 18.7979 125.137 18.7749 124.999 18.7826H114.316C114.177 18.7749 114.039 18.7979 113.911 18.8497C113.782 18.9016 113.667 18.9811 113.573 19.0826C113.394 19.28 113.298 19.5377 113.303 19.8036C113.299 20.0656 113.396 20.319 113.573 20.5126C113.667 20.6141 113.782 20.6936 113.911 20.7454C114.039 20.7973 114.177 20.8202 114.316 20.8126H118.392V33.6696C118.383 33.8415 118.413 34.0132 118.479 34.1721C118.545 34.3309 118.646 34.4729 118.775 34.5876C119.023 34.8062 119.343 34.9246 119.674 34.9196ZM132.948 33.5456C132.464 33.5679 131.982 33.4767 131.54 33.2792C131.098 33.0818 130.709 32.7836 130.403 32.4086C129.743 31.5115 129.417 30.413 129.48 29.3016C129.416 28.1871 129.74 27.085 130.398 26.1826C130.718 25.8243 131.111 25.5377 131.551 25.3418C131.99 25.1458 132.465 25.0448 132.946 25.0454C133.427 25.0459 133.903 25.1481 134.342 25.3451C134.78 25.5421 135.173 25.8295 135.493 26.1886C136.151 27.0881 136.478 28.1883 136.416 29.3016C136.481 30.4116 136.158 31.5098 135.504 32.4086C135.195 32.7828 134.804 33.0803 134.36 33.2776C133.917 33.4749 133.434 33.5666 132.95 33.5456H132.948ZM132.948 35.0876C133.793 35.0999 134.632 34.941 135.414 34.6206C136.103 34.3414 136.718 33.908 137.214 33.3536C137.683 32.8131 138.047 32.1884 138.284 31.5126C138.534 30.8022 138.66 30.0538 138.656 29.3006C138.671 28.2894 138.45 27.2886 138.009 26.3786C137.573 25.5066 136.892 24.7806 136.05 24.2896C135.108 23.7469 134.036 23.4742 132.95 23.5016C132.107 23.4892 131.27 23.6463 130.49 23.9636C129.801 24.2412 129.186 24.6725 128.69 25.2246C128.217 25.7638 127.852 26.3888 127.615 27.0656C127.363 27.7835 127.237 28.5397 127.243 29.3006C127.237 30.0559 127.363 30.8064 127.615 31.5186C127.853 32.1921 128.216 32.8147 128.685 33.3536C129.18 33.908 129.796 34.3414 130.485 34.6206C131.266 34.9412 132.105 35.1004 132.95 35.0886L132.948 35.0876ZM155.207 35.1556C156.934 35.1305 158.648 34.8536 160.296 34.3336C160.601 34.2659 160.871 34.0889 161.056 33.8359C161.24 33.5828 161.325 33.2711 161.296 32.9596V27.4546C161.31 27.1541 161.216 26.8584 161.031 26.6216C160.936 26.5146 160.819 26.4307 160.687 26.3761C160.555 26.3215 160.413 26.2977 160.271 26.3066H155.914C155.79 26.3019 155.668 26.3278 155.557 26.3819C155.446 26.4359 155.35 26.5165 155.278 26.6166C155.127 26.8118 155.046 27.0513 155.047 27.2976C155.047 27.5385 155.128 27.7724 155.278 27.9616C155.351 28.0595 155.448 28.138 155.558 28.1902C155.669 28.2425 155.791 28.267 155.914 28.2616H158.751V32.6746C157.651 32.9581 156.52 33.1055 155.385 33.1136C154.633 33.1675 153.879 33.0437 153.184 32.7522C152.489 32.4607 151.873 32.0096 151.385 31.4356C150.419 30.0676 149.949 28.4117 150.051 26.7406C150.04 25.8854 150.148 25.033 150.372 24.2076C150.567 23.4945 150.898 22.8257 151.346 22.2376C151.799 21.6613 152.394 21.2132 153.074 20.9376C153.869 20.6187 154.721 20.4636 155.579 20.4816C156.058 20.4844 156.536 20.5239 157.009 20.5996C157.519 20.6782 157.927 20.7532 158.231 20.8246C158.535 20.8959 158.976 21.0102 159.554 21.1676C159.632 21.2011 159.717 21.2165 159.802 21.2126C159.93 21.215 160.057 21.186 160.172 21.1281C160.287 21.0703 160.386 20.9853 160.461 20.8806C160.625 20.6704 160.715 20.4107 160.714 20.1436C160.723 19.9538 160.672 19.7659 160.566 19.6077C160.461 19.4496 160.308 19.3296 160.129 19.2656C158.65 18.693 157.075 18.4138 155.49 18.4436C154.266 18.4236 153.05 18.6494 151.915 19.1076C150.928 19.5041 150.05 20.1304 149.354 20.9346C148.695 21.7133 148.189 22.6088 147.862 23.5746C147.513 24.6082 147.34 25.6928 147.35 26.7836C147.331 28.0123 147.525 29.2351 147.924 30.3976C148.259 31.3867 148.813 32.2875 149.545 33.0326C150.252 33.7289 151.098 34.268 152.028 34.6146C153.046 34.9878 154.123 35.1715 155.208 35.1566L155.207 35.1556ZM165.453 34.9076C165.749 34.9127 166.037 34.8055 166.258 34.6076C166.373 34.5026 166.463 34.3735 166.522 34.2295C166.582 34.0855 166.608 33.9301 166.601 33.7746V24.8206C166.608 24.6655 166.582 24.5105 166.524 24.3666C166.465 24.2227 166.376 24.0933 166.263 23.9876C166.048 23.7906 165.766 23.6833 165.475 23.6876C165.178 23.6825 164.89 23.7896 164.67 23.9876C164.555 24.0925 164.464 24.2216 164.405 24.3657C164.345 24.5097 164.319 24.665 164.327 24.8206V33.7716C164.316 33.9276 164.34 34.0839 164.397 34.2297C164.453 34.3754 164.541 34.5071 164.654 34.6156C164.873 34.8117 165.159 34.9165 165.454 34.9086L165.453 34.9076ZM165.464 21.2166C165.838 21.2334 166.204 21.1019 166.483 20.8506C166.612 20.7268 166.713 20.5769 166.78 20.4108C166.847 20.2448 166.878 20.0664 166.871 19.8876C166.878 19.7084 166.847 19.5299 166.781 19.3632C166.715 19.1965 166.615 19.0454 166.488 18.9196C166.352 18.7933 166.193 18.6954 166.019 18.6315C165.845 18.5676 165.66 18.5391 165.475 18.5476C165.094 18.5303 164.721 18.664 164.439 18.9196C164.308 19.0437 164.205 19.1943 164.137 19.3612C164.069 19.5281 164.038 19.7075 164.045 19.8876C164.037 20.0669 164.069 20.2458 164.137 20.4119C164.205 20.5781 164.308 20.7277 164.439 20.8506C164.721 21.103 165.09 21.2348 165.469 21.2176L165.464 21.2166ZM171.882 34.9076C172.175 34.9128 172.461 34.8084 172.682 34.6146C172.796 34.5115 172.885 34.3842 172.944 34.2419C173.002 34.0997 173.028 33.9461 173.02 33.7926V25.2706H174.81C174.918 25.2794 175.027 25.2662 175.13 25.2319C175.233 25.1975 175.328 25.1426 175.41 25.0706C175.477 25.0002 175.529 24.9172 175.563 24.8263C175.597 24.7354 175.613 24.6386 175.61 24.5416C175.614 24.3475 175.542 24.1595 175.41 24.0176C175.331 23.9402 175.237 23.8805 175.133 23.8426C175.03 23.8046 174.919 23.7893 174.81 23.7976H173.02V22.8636C173.012 22.4212 173.039 21.9789 173.099 21.5406C173.129 21.2714 173.225 21.014 173.38 20.7916C173.494 20.6339 173.656 20.5174 173.842 20.4596C174.078 20.4038 174.32 20.3793 174.563 20.3866H175.52C175.628 20.3925 175.737 20.3727 175.837 20.3287C175.937 20.2848 176.025 20.2179 176.094 20.1336C176.228 19.9629 176.299 19.7507 176.294 19.5336C176.296 19.3096 176.223 19.0913 176.086 18.9146C176.02 18.8269 175.933 18.7566 175.834 18.7096C175.735 18.6626 175.626 18.6403 175.517 18.6446H174.132C171.872 18.6446 170.743 19.9056 170.743 22.4276V23.8016H169.381C169.269 23.7935 169.156 23.8089 169.05 23.8468C168.945 23.8847 168.848 23.9442 168.767 24.0216C168.699 24.0909 168.646 24.1729 168.61 24.2628C168.575 24.3527 168.557 24.4488 168.559 24.5456C168.556 24.6425 168.573 24.739 168.608 24.8291C168.644 24.9192 168.698 25.0011 168.767 25.0696C168.85 25.1436 168.947 25.2001 169.052 25.2358C169.158 25.2716 169.27 25.2857 169.381 25.2776H170.743V33.8006C170.734 33.9541 170.76 34.1077 170.818 34.2499C170.877 34.3922 170.966 34.5195 171.081 34.6226C171.303 34.8143 171.589 34.9163 171.883 34.9086L171.882 34.9076ZM181.271 35.0426H181.811C181.976 35.0426 182.119 35.0406 182.239 35.0366C182.359 35.0326 182.492 35.0232 182.639 35.0086C182.762 34.9975 182.884 34.9768 183.005 34.9466C183.107 34.9187 183.208 34.883 183.305 34.8396C183.395 34.8018 183.478 34.7464 183.547 34.6766C183.611 34.6062 183.66 34.524 183.693 34.4346C183.731 34.33 183.75 34.2191 183.749 34.1076C183.751 33.8793 183.664 33.6591 183.507 33.4936C183.422 33.4044 183.32 33.3346 183.206 33.2888C183.092 33.2431 182.97 33.2225 182.848 33.2286H182.78L181.98 33.2736H181.869C181.672 33.2882 181.474 33.2474 181.299 33.1559C181.124 33.0643 180.978 32.9257 180.878 32.7556C180.644 32.2562 180.54 31.7057 180.578 31.1556V25.2706H182.593C182.814 25.2867 183.032 25.2149 183.201 25.0706C183.268 25.0017 183.321 24.9196 183.355 24.8295C183.39 24.7393 183.405 24.643 183.401 24.5466C183.408 24.3472 183.336 24.153 183.201 24.0066C183.12 23.9307 183.024 23.8725 182.919 23.8356C182.814 23.7988 182.703 23.7841 182.593 23.7926H180.578V20.5726C180.59 20.4557 180.576 20.3376 180.538 20.2265C180.499 20.1155 180.437 20.0141 180.356 19.9294C180.274 19.8448 180.175 19.779 180.066 19.7365C179.956 19.694 179.839 19.676 179.722 19.6836C179.445 19.6773 179.177 19.7779 178.973 19.9646C178.768 20.1483 178.638 20.4005 178.607 20.6736L178.307 23.7926H176.99C176.767 23.7754 176.546 23.8473 176.376 23.9926C176.306 24.0615 176.252 24.1441 176.216 24.2352C176.18 24.3262 176.164 24.4238 176.168 24.5216C176.164 24.6207 176.181 24.7195 176.218 24.8116C176.255 24.9037 176.311 24.9871 176.382 25.0566C176.466 25.1302 176.564 25.1865 176.67 25.2222C176.777 25.2579 176.889 25.2723 177.001 25.2646H178.307V31.6346C178.241 32.5537 178.527 33.4635 179.107 34.1796C179.384 34.4697 179.721 34.6969 180.094 34.8459C180.467 34.995 180.867 35.0624 181.269 35.0436L181.271 35.0426Z" fill="#1A3957"/>
</svg>
