<svg width="66" height="166" viewBox="0 0 66 166" fill="none" xmlns="http://www.w3.org/2000/svg">
<circle cx="32.5" cy="133.5" r="32.5" fill="#D8DEF3"/>
<path d="M30.25 140L25 134.517L25.8248 133.655L30.25 138.276L38.1752 130L39 130.861L30.25 140Z" fill="#1A3957"/>
<path d="M65.0806 130C47.2454 130 32.7873 115.575 32.7873 97.7812C50.6224 97.7812 65.0806 112.206 65.0806 130Z" fill="#F6F6F6"/>
<path d="M1.11202 130L0.171417 130L0.171417 129.062C0.171418 111.786 14.2074 97.7817 31.5241 97.7817L32.4647 97.7817L32.4647 98.72C32.4647 115.995 18.4287 130 1.11202 130Z" fill="#2A1A99"/>
<path d="M33.7279 97.3018L32.7873 97.3018L32.7873 96.3635C32.7873 79.0879 46.8232 65.0835 64.14 65.0835L65.0806 65.0835L65.0806 66.0218C65.0806 83.2971 51.0446 97.3018 33.7279 97.3018Z" fill="#2A1A99"/>
<path d="M32.4647 96.3635L32.4647 97.3018L31.5241 97.3018C14.2085 97.3018 0.171416 83.2971 0.171417 66.0218L0.171417 65.0835L1.11202 65.0835C18.4287 65.0835 32.4647 79.0882 32.4647 96.3635Z" fill="#928BEB"/>
<path d="M64.9072 64.9139C47.0725 64.9139 32.6148 50.4897 32.6148 32.6968C50.4495 32.6968 64.9072 47.121 64.9072 64.9139Z" fill="#F6F6F6"/>
<path d="M0.940601 64.9121L2.67029e-05 64.9121L2.67439e-05 63.9738C2.74988e-05 46.6989 14.0356 32.6949 31.3519 32.6949L32.2925 32.6949L32.2925 33.6332C32.2925 50.9079 18.2569 64.9121 0.940601 64.9121Z" fill="#2A1A99"/>
<path d="M33.5553 32.2178L32.6148 32.2178L32.6148 31.2795C32.6148 14.0045 46.6504 0.000609553 63.9667 0.00061031L64.9072 0.000610352L64.9072 0.938871C64.9072 18.2136 50.8716 32.2178 33.5553 32.2178Z" fill="#2A1A99"/>
<path d="M32.2925 31.2789L32.2925 32.2172L31.3519 32.2172C14.0367 32.2172 2.5907e-05 18.213 2.66619e-05 0.938263L2.67029e-05 -1.41192e-06L0.940601 -1.37079e-06C18.2569 -6.13677e-07 32.2925 14.0042 32.2925 31.2789Z" fill="#928BEB"/>
</svg>
