<svg width="35" height="34" viewBox="0 0 35 34" fill="none" xmlns="http://www.w3.org/2000/svg">
<circle cx="17.3093" cy="17.1428" r="16.8571" fill="#928BEB"/>
<path d="M22.0067 12.2484H20.2575L19.3974 10.9585C19.3513 10.8895 19.2889 10.8328 19.2157 10.7937C19.1425 10.7545 19.0608 10.7339 18.9777 10.7339H14.939C14.856 10.7339 14.7743 10.7545 14.7011 10.7937C14.6279 10.8328 14.5655 10.8895 14.5194 10.9585L13.6586 12.2484H11.91C11.5083 12.2484 11.1231 12.408 10.8391 12.692C10.5551 12.976 10.3955 13.3612 10.3955 13.7629V20.8306C10.3955 21.2323 10.5551 21.6175 10.8391 21.9015C11.1231 22.1856 11.5083 22.3451 11.91 22.3451H22.0067C22.4084 22.3451 22.7936 22.1856 23.0777 21.9015C23.3617 21.6175 23.5213 21.2323 23.5213 20.8306V13.7629C23.5213 13.3612 23.3617 12.976 23.0777 12.692C22.7936 12.408 22.4084 12.2484 22.0067 12.2484ZM22.5116 20.8306C22.5116 20.9645 22.4584 21.0929 22.3637 21.1876C22.269 21.2823 22.1406 21.3354 22.0067 21.3354H11.91C11.7761 21.3354 11.6477 21.2823 11.553 21.1876C11.4584 21.0929 11.4052 20.9645 11.4052 20.8306V13.7629C11.4052 13.629 11.4584 13.5006 11.553 13.4059C11.6477 13.3113 11.7761 13.2581 11.91 13.2581H13.9294C14.0125 13.2581 14.0944 13.2376 14.1677 13.1985C14.241 13.1593 14.3035 13.1026 14.3496 13.0334L15.2091 11.7436H18.707L19.5671 13.0334C19.6133 13.1026 19.6758 13.1593 19.7491 13.1985C19.8224 13.2376 19.9043 13.2581 19.9874 13.2581H22.0067C22.1406 13.2581 22.269 13.3113 22.3637 13.4059C22.4584 13.5006 22.5116 13.629 22.5116 13.7629V20.8306ZM16.9584 14.2677C16.4092 14.2677 15.8724 14.4306 15.4158 14.7357C14.9592 15.0408 14.6033 15.4744 14.3931 15.9818C14.183 16.4891 14.128 17.0474 14.2351 17.586C14.3423 18.1246 14.6067 18.6194 14.995 19.0077C15.3833 19.396 15.8781 19.6605 16.4167 19.7676C16.9553 19.8747 17.5136 19.8197 18.0209 19.6096C18.5283 19.3994 18.9619 19.0435 19.267 18.5869C19.5721 18.1303 19.735 17.5935 19.735 17.0443C19.7341 16.3082 19.4413 15.6024 18.9208 15.0819C18.4003 14.5614 17.6945 14.2686 16.9584 14.2677ZM16.9584 18.8113C16.6089 18.8113 16.2673 18.7076 15.9767 18.5135C15.6862 18.3193 15.4597 18.0434 15.326 17.7205C15.1922 17.3977 15.1572 17.0424 15.2254 16.6996C15.2936 16.3569 15.4619 16.042 15.709 15.7949C15.9561 15.5478 16.2709 15.3795 16.6137 15.3114C16.9564 15.2432 17.3117 15.2782 17.6346 15.4119C17.9574 15.5456 18.2334 15.7721 18.4275 16.0627C18.6217 16.3533 18.7253 16.6949 18.7253 17.0443C18.7253 17.513 18.5391 17.9624 18.2078 18.2937C17.8764 18.6251 17.427 18.8113 16.9584 18.8113Z" fill="white"/>
</svg>
