<svg width="17" height="17" viewBox="0 0 17 17" fill="none" xmlns="http://www.w3.org/2000/svg">
<path d="M8.5 1.85938C7.18661 1.85937 5.90271 2.24884 4.81067 2.97852C3.71862 3.7082 2.86748 4.74533 2.36487 5.95874C1.86225 7.17216 1.73075 8.50737 1.98698 9.79552C2.24321 11.0837 2.87566 12.2669 3.80437 13.1956C4.73308 14.1243 5.91633 14.7568 7.20448 15.013C8.49264 15.2693 9.82784 15.1378 11.0413 14.6351C12.2547 14.1325 13.2918 13.2814 14.0215 12.1893C14.7512 11.0973 15.1406 9.81339 15.1406 8.5C15.1387 6.73939 14.4384 5.05144 13.1935 3.8065C11.9486 2.56156 10.2606 1.86131 8.5 1.85938ZM8.5 14.6094C7.29168 14.6094 6.1105 14.2511 5.10582 13.5798C4.10113 12.9085 3.31808 11.9543 2.85568 10.838C2.39327 9.72161 2.27229 8.49322 2.50802 7.30812C2.74375 6.12302 3.32561 5.03443 4.18002 4.18002C5.03443 3.32561 6.12302 2.74375 7.30812 2.50801C8.49323 2.27228 9.72162 2.39327 10.838 2.85567C11.9543 3.31808 12.9085 4.10113 13.5798 5.10581C14.2511 6.11049 14.6094 7.29168 14.6094 8.5C14.6076 10.1198 13.9634 11.6727 12.818 12.818C11.6727 13.9634 10.1198 14.6076 8.5 14.6094ZM12.4844 8.5C12.4844 8.57045 12.4564 8.63801 12.4066 8.68783C12.3568 8.73764 12.2892 8.76562 12.2188 8.76562H8.5C8.42955 8.76562 8.36199 8.73764 8.31218 8.68783C8.26236 8.63801 8.23438 8.57045 8.23438 8.5V4.78125C8.23438 4.7108 8.26236 4.64324 8.31218 4.59342C8.36199 4.54361 8.42955 4.51562 8.5 4.51562C8.57045 4.51562 8.63801 4.54361 8.68783 4.59342C8.73764 4.64324 8.76563 4.7108 8.76563 4.78125V8.23438H12.2188C12.2892 8.23438 12.3568 8.26236 12.4066 8.31217C12.4564 8.36199 12.4844 8.42955 12.4844 8.5Z" fill="#1A3957"/>
</svg>
