<svg width="44" height="44" viewBox="0 0 44 44" fill="none" xmlns="http://www.w3.org/2000/svg">
<rect width="44" height="44" rx="22" fill="#1A3957"/>
<g clip-path="url(#clip0_986_995)">
<path d="M28.1717 18.2353L25.8889 15.9409C25.738 15.7908 25.5339 15.7065 25.3211 15.7065C25.1083 15.7065 24.9042 15.7908 24.7533 15.9409L16.6605 24.022L15.9217 27.2109C15.8962 27.3275 15.897 27.4482 15.9242 27.5644C15.9514 27.6806 16.0042 27.7893 16.0787 27.8825C16.1533 27.9756 16.2477 28.051 16.3551 28.103C16.4625 28.155 16.5801 28.1824 16.6994 28.1831C16.755 28.1887 16.8111 28.1887 16.8667 28.1831L20.0905 27.4442L28.1717 19.3709C28.3217 19.22 28.406 19.0159 28.406 18.8031C28.406 18.5903 28.3217 18.3862 28.1717 18.2353ZM19.7017 26.7442L16.68 27.3781L17.3683 24.4148L23.4233 18.3831L25.7567 20.7164L19.7017 26.7442ZM26.2778 20.1525L23.9444 17.8192L25.2978 16.4737L27.5922 18.807L26.2778 20.1525Z" fill="white"/>
</g>
<defs>
<clipPath id="clip0_986_995">
<rect width="14" height="14" fill="white" transform="translate(15 15)"/>
</clipPath>
</defs>
</svg>
