<svg width="10" height="10" viewBox="0 0 10 10" fill="none" xmlns="http://www.w3.org/2000/svg">
<path d="M5.72144 8.088C6.32144 8.088 6.83744 7.956 7.26944 7.692C7.70944 7.428 8.04544 7.052 8.27744 6.564H9.57344C9.26944 7.364 8.77744 7.984 8.09744 8.424C7.41744 8.856 6.62544 9.072 5.72144 9.072C4.77744 9.072 3.94544 8.812 3.22544 8.292C2.50544 7.772 2.00944 7.076 1.73744 6.204H0.573438V5.436H1.56944C1.54544 5.228 1.53344 5.02 1.53344 4.812C1.53344 4.612 1.54544 4.416 1.56944 4.224H0.573438V3.468H1.72544C1.90144 2.884 2.18144 2.372 2.56544 1.932C2.95744 1.484 3.42144 1.14 3.95744 0.9C4.50144 0.652 5.08944 0.528 5.72144 0.528C6.62544 0.528 7.41744 0.748 8.09744 1.188C8.77744 1.628 9.26944 2.252 9.57344 3.06H8.27744C8.04544 2.564 7.71344 2.184 7.28144 1.92C6.84944 1.656 6.32944 1.524 5.72144 1.524C5.04944 1.524 4.46144 1.696 3.95744 2.04C3.46144 2.384 3.10544 2.86 2.88944 3.468H5.72144V4.224H2.69744C2.67344 4.416 2.66144 4.612 2.66144 4.812C2.66144 5.044 2.67744 5.252 2.70944 5.436H5.72144V6.204H2.90144C3.13344 6.796 3.49744 7.26 3.99344 7.596C4.49744 7.924 5.07344 8.088 5.72144 8.088Z" fill="#1A3957"/>
</svg>
