<svg width="18" height="18" viewBox="0 0 18 18" fill="none" xmlns="http://www.w3.org/2000/svg">
<g clip-path="url(#clip0_858_990)">
<path d="M9.185 5.58496C8.78034 5.58543 8.37903 5.65825 8 5.79996L12.4 10.2C12.5436 9.81624 12.6164 9.40967 12.615 8.99996C12.611 8.09287 12.2479 7.22428 11.6051 6.58428C10.9623 5.94427 10.0921 5.58495 9.185 5.58496Z" fill="#1A3957"/>
<path d="M17.1452 8.76514C15.4602 5.65014 12.5052 3.76514 9.23523 3.76514C8.34491 3.76723 7.46057 3.91068 6.61523 4.19014L7.42023 5.00014C8.01316 4.8469 8.62283 4.76796 9.23523 4.76514C12.0502 4.76514 14.6102 6.33514 16.1352 8.98014C15.5758 9.96144 14.8342 10.8269 13.9502 11.5301L14.6602 12.2401C15.6833 11.4148 16.5329 10.3952 17.1602 9.24014L17.2902 9.00014L17.1452 8.76514Z" fill="#1A3957"/>
<path d="M2.43445 2.89002L4.66445 5.12002C3.25491 6.02758 2.1029 7.2829 1.31945 8.76502L1.18945 9.00002L1.31945 9.24002C3.00445 12.355 5.95945 14.24 9.22945 14.24C10.5058 14.2398 11.7655 13.9509 12.9145 13.395L15.4145 15.895L16.2895 15.145L3.28945 2.14502L2.43445 2.89002ZM6.58445 7.04002C6.11667 7.69972 5.89742 8.50367 5.96551 9.30951C6.03361 10.1154 6.38466 10.8711 6.95651 11.443C7.52836 12.0148 8.28411 12.3659 9.08996 12.434C9.89581 12.5021 10.6998 12.2828 11.3595 11.815L12.1595 12.615C11.2333 13.0109 10.2366 13.215 9.22945 13.215C6.41445 13.215 3.85445 11.645 2.32945 9.00002C3.06131 7.70413 4.11531 6.61912 5.38945 5.85002L6.58445 7.04002Z" fill="#1A3957"/>
</g>
<defs>
<clipPath id="clip0_858_990">
<rect width="18" height="18" fill="white"/>
</clipPath>
</defs>
</svg>
