<svg width="18" height="18" viewBox="0 0 18 18" fill="none" xmlns="http://www.w3.org/2000/svg">
<g clip-path="url(#clip0_858_996)">
<path d="M16.8094 8.76514C15.1244 5.65014 12.1694 3.76514 8.89937 3.76514C5.62937 3.76514 2.66937 5.65014 0.999375 8.76514L0.859375 9.00014L0.989375 9.24014C2.67437 12.3551 5.62937 14.2401 8.89937 14.2401C12.1694 14.2401 15.1294 12.3801 16.8094 9.24014L16.9394 9.00014L16.8094 8.76514ZM8.89937 13.2151C6.08437 13.2151 3.49937 11.6451 1.99937 9.00014C3.49937 6.35514 6.08437 4.78514 8.89937 4.78514C11.7144 4.78514 14.2694 6.36014 15.7944 9.00014C14.2694 11.6451 11.7094 13.2151 8.89937 13.2151Z" fill="#1A3957"/>
<path d="M9.04523 12.445C10.9396 12.445 12.4752 10.9093 12.4752 9.01496C12.4752 7.12062 10.9396 5.58496 9.04523 5.58496C7.1509 5.58496 5.61523 7.12062 5.61523 9.01496C5.61523 10.9093 7.1509 12.445 9.04523 12.445Z" fill="#1A3957"/>
</g>
<defs>
<clipPath id="clip0_858_996">
<rect width="18" height="18" fill="white"/>
</clipPath>
</defs>
</svg>
