<svg width="18" height="16" viewBox="0 0 18 16" fill="none" xmlns="http://www.w3.org/2000/svg">
<path d="M8.31191 1.5868C8.57303 0.984638 9.42697 0.984639 9.68809 1.5868L11.2679 5.22987C11.3765 5.48049 11.6129 5.6522 11.8848 5.67811L15.8377 6.05478C16.4911 6.11704 16.755 6.92919 16.263 7.36361L13.2864 9.99182C13.0816 10.1726 12.9914 10.4505 13.0508 10.7171L13.914 14.593C14.0567 15.2336 13.3659 15.7355 12.8007 15.4019L9.38129 13.3831C9.14607 13.2442 8.85393 13.2442 8.61871 13.3831L5.19931 15.4019C4.63412 15.7355 3.94326 15.2336 4.08595 14.593L4.94924 10.7171C5.00863 10.4505 4.91836 10.1726 4.71359 9.99182L1.73699 7.36361C1.245 6.92919 1.50888 6.11704 2.16226 6.05478L6.1152 5.67811C6.38713 5.6522 6.62347 5.48049 6.73215 5.22987L8.31191 1.5868Z" fill="#CAC7EF" stroke="#CAC7EF"/>
</svg>
