<svg width="26" height="25" viewBox="0 0 26 25" fill="none" xmlns="http://www.w3.org/2000/svg">
<path d="M23.3125 7.43743H19.2016C19.2473 7.39876 19.2941 7.36126 19.3387 7.32024C19.6946 7.00404 19.9814 6.61781 20.1812 6.18569C20.3811 5.75358 20.4896 5.28488 20.5 4.80891C20.5154 4.28822 20.4242 3.76987 20.232 3.28569C20.0398 2.80152 19.7507 2.36173 19.3824 1.99332C19.0141 1.62492 18.5744 1.33568 18.0903 1.14336C17.6062 0.951034 17.0879 0.859688 16.5672 0.874927C16.091 0.885183 15.6221 0.99362 15.1898 1.19345C14.7574 1.39328 14.371 1.6802 14.0547 2.03626C13.617 2.54355 13.2611 3.11607 13 3.73313C12.7389 3.11607 12.383 2.54355 11.9453 2.03626C11.629 1.6802 11.2426 1.39328 10.8102 1.19345C10.3779 0.99362 9.90898 0.885183 9.43281 0.874927C8.91211 0.859688 8.39379 0.951034 7.90967 1.14336C7.42555 1.33568 6.98585 1.62492 6.61756 1.99332C6.24926 2.36173 5.96015 2.80152 5.76798 3.28569C5.5758 3.76987 5.48461 4.28822 5.5 4.80891C5.51042 5.28488 5.61893 5.75358 5.81876 6.18569C6.01858 6.61781 6.30542 7.00404 6.66133 7.32024C6.70586 7.35891 6.75273 7.39641 6.79844 7.43743H2.6875C2.19022 7.43743 1.71331 7.63497 1.36167 7.9866C1.01004 8.33823 0.8125 8.81515 0.8125 9.31243V13.0624C0.8125 13.5597 1.01004 14.0366 1.36167 14.3883C1.71331 14.7399 2.19022 14.9374 2.6875 14.9374V22.4374C2.6875 22.9347 2.88504 23.4116 3.23667 23.7633C3.58831 24.1149 4.06522 24.3124 4.5625 24.3124H11.5938C11.7181 24.3124 11.8373 24.263 11.9252 24.1751C12.0131 24.0872 12.0625 23.968 12.0625 23.8437V13.0624H2.6875V9.31243H12.0625V13.0624H13.9375V9.31243H23.3125V13.0624H13.9375V23.8437C13.9375 23.968 13.9869 24.0872 14.0748 24.1751C14.1627 24.263 14.2819 24.3124 14.4062 24.3124H21.4375C21.9348 24.3124 22.4117 24.1149 22.7633 23.7633C23.115 23.4116 23.3125 22.9347 23.3125 22.4374V14.9374C23.8098 14.9374 24.2867 14.7399 24.6383 14.3883C24.99 14.0366 25.1875 13.5597 25.1875 13.0624V9.31243C25.1875 8.81515 24.99 8.33823 24.6383 7.9866C24.2867 7.63497 23.8098 7.43743 23.3125 7.43743ZM7.90352 5.91399C7.73959 5.76555 7.60813 5.58482 7.51738 5.38316C7.42663 5.18149 7.37856 4.96324 7.37617 4.74211C7.37025 4.48302 7.41609 4.22534 7.51102 3.98418C7.60595 3.74303 7.74805 3.52325 7.929 3.33771C8.10995 3.15217 8.32612 3.00462 8.56482 2.90369C8.80353 2.80276 9.05997 2.75048 9.31914 2.74993H9.37656C9.59769 2.75231 9.81594 2.80039 10.0176 2.89114C10.2193 2.98189 10.4 3.11335 10.5484 3.27727C11.5316 4.38821 11.8785 6.2304 12.0004 7.36946C10.8566 7.24875 9.01562 6.90188 7.90352 5.91399ZM18.0988 5.91399C16.9867 6.89836 15.141 7.24524 13.9973 7.36712C14.1367 6.13547 14.5234 4.33196 15.4609 3.27844C15.6094 3.11452 15.7901 2.98306 15.9918 2.89231C16.1934 2.80156 16.4117 2.75348 16.6328 2.7511H16.6902C16.9494 2.75272 17.2057 2.80605 17.444 2.90798C17.6823 3.0099 17.8978 3.15837 18.078 3.34467C18.2582 3.53097 18.3994 3.75137 18.4933 3.99294C18.5873 4.23451 18.632 4.4924 18.625 4.75149C18.6212 4.97112 18.5723 5.18763 18.4814 5.38759C18.3905 5.58756 18.2595 5.76673 18.0965 5.91399H18.0988Z" fill="#1A3957"/>
</svg>
