<svg width="34" height="34" viewBox="0 0 34 34" fill="none" xmlns="http://www.w3.org/2000/svg">
<circle cx="16.64" cy="16.64" r="16.64" fill="#CAC7EF"/>
<path d="M22.2424 11.7575C22.0553 11.5705 21.8333 11.4221 21.5889 11.3208C21.3444 11.2196 21.0825 11.1675 20.8179 11.1675C20.5534 11.1675 20.2914 11.2196 20.047 11.3208C19.8026 11.4221 19.5805 11.5705 19.3934 11.7575L12.3444 18.8077C12.1222 19.0299 11.9639 19.3077 11.8859 19.6121L11.178 22.3786C11.1624 22.4399 11.163 22.5041 11.1798 22.5651C11.1965 22.6261 11.2288 22.6817 11.2735 22.7264C11.3183 22.7711 11.3738 22.8035 11.4348 22.8202C11.4958 22.8369 11.5601 22.8375 11.6214 22.8219L14.3884 22.1149C14.693 22.0371 14.9711 21.8787 15.1934 21.6564L22.2424 14.6062C22.6201 14.2284 22.8323 13.7161 22.8323 13.1819C22.8323 12.6477 22.6201 12.1353 22.2424 11.7575ZM19.9091 12.2732C20.1501 12.0321 20.4771 11.8967 20.818 11.8966C21.1589 11.8966 21.4858 12.032 21.7269 12.2731C21.968 12.5141 22.1034 12.841 22.1035 13.1819C22.1035 13.5228 21.9681 13.8498 21.727 14.0909L21.0833 14.7346L19.2657 12.9166L19.9091 12.2732ZM18.75 13.4323L20.5677 15.2502L14.6778 21.1407C14.548 21.2705 14.3857 21.363 14.2079 21.4085L12.037 21.9632L12.5923 19.7929C12.6378 19.615 12.7303 19.4529 12.8598 19.3234L18.75 13.432V13.4323Z" fill="white"/>
</svg>
