<svg width="24" height="23" viewBox="0 0 24 23" fill="none" xmlns="http://www.w3.org/2000/svg">
<path d="M22.3125 6.9062H16.548C17.0852 6.66881 17.584 6.35285 18.0281 5.9687C18.3361 5.69482 18.5842 5.36025 18.7568 4.98597C18.9295 4.61169 19.0229 4.20578 19.0312 3.7937C19.0445 3.33704 18.9644 2.88247 18.7957 2.45789C18.627 2.03331 18.3734 1.64767 18.0503 1.32462C17.7273 1.00157 17.3416 0.747931 16.9171 0.579254C16.4925 0.410576 16.0379 0.33042 15.5812 0.343703C15.1692 0.352069 14.7633 0.445492 14.389 0.618111C14.0147 0.79073 13.6801 1.03882 13.4062 1.34683C12.7137 2.12847 12.2777 3.14683 12 4.123C11.7246 3.14683 11.2887 2.13081 10.5938 1.34683C10.3199 1.03882 9.98529 0.79073 9.61102 0.618111C9.23674 0.445492 8.83083 0.352069 8.41875 0.343703C7.96208 0.33042 7.50752 0.410576 7.08294 0.579254C6.65836 0.747931 6.27272 1.00157 5.94967 1.32462C5.62662 1.64767 5.37298 2.03331 5.2043 2.45789C5.03562 2.88247 4.95547 3.33704 4.96875 3.7937C4.97712 4.20578 5.07054 4.61169 5.24316 4.98597C5.41578 5.36025 5.66387 5.69482 5.97187 5.9687C6.41603 6.35285 6.91485 6.66881 7.45195 6.9062H1.6875C1.31454 6.9062 0.956854 7.05436 0.693131 7.31808C0.429408 7.58181 0.28125 7.93949 0.28125 8.31245V12.0625C0.28125 12.4354 0.429408 12.7931 0.693131 13.0568C0.956854 13.3205 1.31454 13.4687 1.6875 13.4687H2.15625V21.4375C2.15625 21.8104 2.30441 22.1681 2.56813 22.4318C2.83185 22.6955 3.18954 22.8437 3.5625 22.8437H20.4375C20.8105 22.8437 21.1681 22.6955 21.4319 22.4318C21.6956 22.1681 21.8438 21.8104 21.8438 21.4375V13.4687H22.3125C22.6855 13.4687 23.0431 13.3205 23.3069 13.0568C23.5706 12.7931 23.7188 12.4354 23.7188 12.0625V8.31245C23.7188 7.93949 23.5706 7.58181 23.3069 7.31808C23.0431 7.05436 22.6855 6.9062 22.3125 6.9062ZM14.1094 1.96792C14.2986 1.75634 14.5296 1.58613 14.7877 1.46796C15.0458 1.34979 15.3255 1.28621 15.6094 1.2812H15.6809C16.0037 1.28155 16.3232 1.34657 16.6205 1.47245C16.9177 1.59832 17.1868 1.78249 17.4117 2.01407C17.6366 2.24566 17.8129 2.51996 17.93 2.82079C18.0472 3.12162 18.1028 3.44287 18.0938 3.76558C18.0887 4.0494 18.0251 4.32912 17.9069 4.58723C17.7887 4.84534 17.6186 5.07627 17.407 5.26558C15.9902 6.51948 13.5316 6.81363 12.4852 6.88159C12.5578 5.84331 12.8508 3.39058 14.1094 1.96792ZM5.90625 3.76558C5.89717 3.44287 5.95284 3.12162 6.06999 2.82079C6.18713 2.51996 6.36337 2.24566 6.58829 2.01407C6.81321 1.78249 7.08225 1.59832 7.37954 1.47245C7.67682 1.34657 7.99631 1.28155 8.31914 1.2812H8.39062C8.67446 1.28621 8.9542 1.34979 9.21232 1.46796C9.47044 1.58613 9.70136 1.75634 9.89062 1.96792C11.1457 3.38472 11.4387 5.84331 11.5066 6.8898C10.4648 6.82183 8.00625 6.52769 6.58477 5.27378C6.37372 5.08281 6.20449 4.85023 6.08772 4.59067C5.97095 4.3311 5.90916 4.05018 5.90625 3.76558ZM1.21875 12.0625V8.31245C1.21875 8.18813 1.26814 8.0689 1.35604 7.981C1.44395 7.89309 1.56318 7.8437 1.6875 7.8437H11.5312V12.5312H1.6875C1.56318 12.5312 1.44395 12.4818 1.35604 12.3939C1.26814 12.306 1.21875 12.1868 1.21875 12.0625ZM3.09375 21.4375V13.4687H11.5312V21.9062H3.5625C3.43818 21.9062 3.31895 21.8568 3.23104 21.7689C3.14314 21.681 3.09375 21.5618 3.09375 21.4375ZM20.9062 21.4375C20.9062 21.5618 20.8569 21.681 20.769 21.7689C20.681 21.8568 20.5618 21.9062 20.4375 21.9062H12.4688V13.4687H20.9062V21.4375ZM22.7812 12.0625C22.7812 12.1868 22.7319 12.306 22.644 12.3939C22.556 12.4818 22.4368 12.5312 22.3125 12.5312H12.4688V7.8437H22.3125C22.4368 7.8437 22.556 7.89309 22.644 7.981C22.7319 8.0689 22.7812 8.18813 22.7812 8.31245V12.0625Z" fill="#1A3957"/>
</svg>
