<svg width="40" height="40" viewBox="0 0 40 40" fill="none" xmlns="http://www.w3.org/2000/svg">
<circle cx="20" cy="20" r="19.5" fill="white" stroke="white"/>
<path d="M15.1551 20.172L20.7281 25.482C20.8211 25.5707 20.9446 25.6201 21.0731 25.6201C21.2016 25.6201 21.3251 25.5707 21.4181 25.482L21.4241 25.476C21.4693 25.433 21.5054 25.3813 21.53 25.324C21.5546 25.2667 21.5673 25.2049 21.5673 25.1425C21.5673 25.0801 21.5546 25.0184 21.53 24.9611C21.5054 24.9037 21.4693 24.852 21.4241 24.809L16.1761 19.809L21.4241 14.811C21.4693 14.768 21.5054 14.7163 21.53 14.659C21.5546 14.6017 21.5673 14.5399 21.5673 14.4775C21.5673 14.4151 21.5546 14.3534 21.53 14.2961C21.5054 14.2387 21.4693 14.187 21.4241 14.144L21.4181 14.138C21.3251 14.0494 21.2016 13.9999 21.0731 13.9999C20.9446 13.9999 20.8211 14.0494 20.7281 14.138L15.1551 19.448C15.1061 19.4947 15.0671 19.5509 15.0404 19.6131C15.0137 19.6753 15 19.7423 15 19.81C15 19.8777 15.0137 19.9447 15.0404 20.0069C15.0671 20.0692 15.1061 20.1253 15.1551 20.172Z" fill="#1A3957"/>
</svg>
