<svg width="7" height="12" viewBox="0 0 7 12" fill="none" xmlns="http://www.w3.org/2000/svg">
<path d="M6.41228 5.44809L0.839282 0.138095C0.746294 0.0494507 0.622752 7.0889e-08 0.494281 7.2421e-08C0.365811 7.3953e-08 0.24227 0.0494507 0.149282 0.138095L0.143281 0.144095C0.0980468 0.187069 0.062027 0.238795 0.0374131 0.296128C0.0127997 0.353461 0.00010634 0.415202 0.00010634 0.477595C0.000106341 0.539989 0.0127997 0.60173 0.0374131 0.659063C0.062027 0.716396 0.0980468 0.768122 0.143281 0.811095L5.39128 5.8111L0.143282 10.8091C0.0980469 10.8521 0.0620271 10.9038 0.0374133 10.9611C0.0127999 11.0185 0.000106467 11.0802 0.000106468 11.1426C0.000106468 11.205 0.0127999 11.2667 0.0374133 11.3241C0.0620271 11.3814 0.0980469 11.4331 0.143282 11.4761L0.149282 11.4821C0.242271 11.5707 0.365811 11.6202 0.494281 11.6202C0.622752 11.6202 0.746294 11.5707 0.839282 11.4821L6.41228 6.1721C6.46129 6.1254 6.50031 6.06923 6.52697 6.00701C6.55364 5.94478 6.56738 5.87779 6.56738 5.81009C6.56738 5.7424 6.55364 5.67541 6.52697 5.61318C6.50031 5.55096 6.46129 5.49479 6.41228 5.44809Z" fill="#1A3957"/>
</svg>
