<svg width="26" height="26" viewBox="0 0 26 26" fill="none" xmlns="http://www.w3.org/2000/svg">
<path fill-rule="evenodd" clip-rule="evenodd" d="M13.8835 0.866227C13.6491 0.631888 13.3312 0.500244 12.9997 0.500244C12.6683 0.500244 12.3504 0.631888 12.116 0.866227L3.36599 9.61623L0.865985 12.1162C0.746597 12.2315 0.65137 12.3695 0.585859 12.522C0.520347 12.6745 0.485864 12.8385 0.484422 13.0045C0.48298 13.1705 0.514607 13.335 0.577458 13.4887C0.640309 13.6423 0.733126 13.7819 0.850492 13.8992C0.967857 14.0166 1.10742 14.1094 1.26104 14.1723C1.41466 14.2351 1.57926 14.2667 1.74524 14.2653C1.91121 14.2638 2.07524 14.2294 2.22774 14.1639C2.38025 14.0983 2.51818 14.0031 2.63349 13.8837L2.99974 13.5175V21.75C2.99974 22.7445 3.39482 23.6984 4.09808 24.4016C4.80135 25.1049 5.75517 25.5 6.74973 25.5H19.2497C20.2443 25.5 21.1981 25.1049 21.9014 24.4016C22.6046 23.6984 22.9997 22.7445 22.9997 21.75V13.5175L23.366 13.8837C23.6017 14.1114 23.9175 14.2374 24.2452 14.2346C24.573 14.2317 24.8865 14.1003 25.1183 13.8685C25.35 13.6367 25.4815 13.3232 25.4843 12.9955C25.4872 12.6677 25.3612 12.352 25.1335 12.1162L13.8835 0.866227Z" fill="#1A3957"/>
</svg>
