<svg width="24" height="24" viewBox="0 0 24 24" fill="none" xmlns="http://www.w3.org/2000/svg">
<path d="M21.3748 9.4999C21.3748 9.33414 21.309 9.17517 21.1918 9.05795C21.0745 8.94074 20.9156 8.8749 20.7498 8.8749C20.5841 8.8749 20.4251 8.94074 20.3079 9.05795C20.1907 9.17517 20.1248 9.33414 20.1248 9.4999H21.3748ZM3.87481 9.4999C3.87481 9.33414 3.80896 9.17517 3.69175 9.05795C3.57454 8.94074 3.41557 8.8749 3.24981 8.8749C3.08405 8.8749 2.92508 8.94074 2.80787 9.05795C2.69066 9.17517 2.62481 9.33414 2.62481 9.4999H3.87481ZM22.8073 12.4424C22.9247 12.5598 23.0838 12.6257 23.2498 12.6257C23.4158 12.6257 23.575 12.5598 23.6923 12.4424C23.8097 12.325 23.8756 12.1659 23.8756 11.9999C23.8756 11.8339 23.8097 11.6748 23.6923 11.5574L22.8073 12.4424ZM11.9998 0.749897L12.4423 0.307396C12.3843 0.249192 12.3153 0.203014 12.2394 0.171506C12.1634 0.139998 12.082 0.123779 11.9998 0.123779C11.9176 0.123779 11.8362 0.139998 11.7603 0.171506C11.6843 0.203014 11.6154 0.249192 11.5573 0.307396L11.9998 0.749897ZM0.307313 11.5574C0.189954 11.6748 0.124023 11.8339 0.124023 11.9999C0.124023 12.1659 0.189954 12.325 0.307313 12.4424C0.424671 12.5598 0.583843 12.6257 0.749813 12.6257C0.915783 12.6257 1.07495 12.5598 1.19231 12.4424L0.307313 11.5574ZM5.74981 23.8749H18.2498V22.6249H5.74981V23.8749ZM21.3748 20.7499V9.4999H20.1248V20.7499H21.3748ZM3.87481 20.7499V9.4999H2.62481V20.7499H3.87481ZM23.6923 11.5574L12.4423 0.307396L11.5573 1.1924L22.8073 12.4424L23.6923 11.5574ZM11.5573 0.307396L0.307313 11.5574L1.19231 12.4424L12.4423 1.1924L11.5573 0.307396ZM18.2498 23.8749C19.0786 23.8749 19.8735 23.5457 20.4595 22.9596C21.0456 22.3736 21.3748 21.5787 21.3748 20.7499H20.1248C20.1248 21.2472 19.9273 21.7241 19.5756 22.0757C19.224 22.4274 18.7471 22.6249 18.2498 22.6249V23.8749ZM5.74981 22.6249C5.25253 22.6249 4.77562 22.4274 4.42399 22.0757C4.07236 21.7241 3.87481 21.2472 3.87481 20.7499H2.62481C2.62481 21.5787 2.95405 22.3736 3.5401 22.9596C4.12616 23.5457 4.92101 23.8749 5.74981 23.8749V22.6249Z" fill="#1A3957"/>
</svg>
