<svg width="119" height="225" viewBox="0 0 119 225" fill="none" xmlns="http://www.w3.org/2000/svg">
<path d="M118.727 224.157C86.19 224.157 59.8141 197.842 59.8141 165.382C92.3507 165.382 118.727 191.697 118.727 224.157Z" fill="#F6F6F6"/>
<path d="M2.02905 224.158L0.313126 224.158L0.313126 222.446C0.313127 190.93 25.9189 165.382 57.5097 165.382L59.2256 165.382L59.2256 167.094C59.2256 198.609 33.6198 224.158 2.02905 224.158Z" fill="#2A1A99"/>
<path d="M61.53 164.507L59.8141 164.507L59.8141 162.795C59.8141 131.279 85.4199 105.731 117.011 105.731L118.727 105.731L118.727 107.443C118.727 138.958 93.1208 164.507 61.53 164.507Z" fill="#2A1A99"/>
<path d="M59.2256 162.795L59.2256 164.507L57.5097 164.507C25.9208 164.507 0.313124 138.958 0.313126 107.443L0.313126 105.731L2.02905 105.731C33.6198 105.731 59.2256 131.28 59.2256 162.795Z" fill="#928BEB"/>
<path d="M118.409 105.422C85.8735 105.422 59.4983 79.1075 59.4983 46.6479C92.034 46.6479 118.409 72.962 118.409 105.422Z" fill="#F6F6F6"/>
<path d="M1.71513 105.419L-0.000747681 105.419L-0.000747606 103.707C-0.000746229 72.1926 25.6043 46.6454 57.1943 46.6454L58.9102 46.6454L58.9102 48.3571C58.9102 79.8712 33.3051 105.419 1.71513 105.419Z" fill="#2A1A99"/>
<path d="M61.2142 45.7739L59.4983 45.7739L59.4983 44.0623C59.4983 12.5476 85.1034 -12.9996 116.693 -12.9996L118.409 -12.9996L118.409 -11.288C118.409 20.2262 92.8041 45.7739 61.2142 45.7739Z" fill="#2A1A99"/>
<path d="M58.9102 44.0619L58.9102 45.7736L57.1943 45.7736C25.6063 45.7736 -0.000749133 20.2258 -0.000747755 -11.2883L-0.000747681 -13L1.71513 -13C33.3051 -13 58.9102 12.5477 58.9102 44.0619Z" fill="#928BEB"/>
</svg>
