<svg width="20" height="20" viewBox="0 0 20 20" fill="none" xmlns="http://www.w3.org/2000/svg">
<path d="M19.5156 2.03436C19.8876 1.06236 18.9348 0.109563 17.964 0.482763L1.1676 6.94356C0.0803961 7.36116 0.166796 8.92716 1.2936 9.22356L8.4612 11.11C8.56383 11.137 8.65744 11.1908 8.73249 11.2659C8.80754 11.3409 8.86134 11.4345 8.8884 11.5372L10.7748 18.7048C11.0712 19.8328 12.6372 19.9168 13.0548 18.8308L19.5156 2.03436ZM18.3948 1.60236L11.9352 18.4L10.0488 11.2324C9.9677 10.9241 9.80621 10.6429 9.58082 10.4175C9.35544 10.1922 9.07425 10.0307 8.766 9.94956L1.5996 8.06316L18.396 1.60356L18.3948 1.60236Z" fill="#1A3957"/>
</svg>
