<svg width="22" height="24" viewBox="0 0 22 24" fill="none" xmlns="http://www.w3.org/2000/svg">
<path d="M15.2187 23.25C15.2187 23.3743 15.1693 23.4935 15.0814 23.5815C14.9935 23.6694 14.8743 23.7188 14.7499 23.7188H7.24993C7.12561 23.7188 7.00638 23.6694 6.91847 23.5815C6.83057 23.4935 6.78118 23.3743 6.78118 23.25C6.78118 23.1257 6.83057 23.0065 6.91847 22.9185C7.00638 22.8306 7.12561 22.7812 7.24993 22.7812H14.7499C14.8743 22.7812 14.9935 22.8306 15.0814 22.9185C15.1693 23.0065 15.2187 23.1257 15.2187 23.25ZM21.5913 19.2656C21.4695 19.4805 21.2925 19.6589 21.0787 19.7825C20.8649 19.9061 20.6219 19.9704 20.3749 19.9688H1.62493C1.3785 19.9679 1.13663 19.9023 0.923541 19.7785C0.710453 19.6547 0.533634 19.4771 0.410796 19.2635C0.287958 19.0499 0.223415 18.8077 0.223633 18.5613C0.223852 18.3148 0.288824 18.0728 0.41204 17.8594C1.08821 16.6875 2.09368 13.4215 2.09368 9.1875C2.09368 6.82542 3.03202 4.56008 4.70226 2.88983C6.37251 1.21958 8.63785 0.28125 10.9999 0.28125C13.362 0.28125 15.6274 1.21958 17.2976 2.88983C18.9678 4.56008 19.9062 6.82542 19.9062 9.1875C19.9062 13.4215 20.9128 16.6875 21.589 17.8535C21.7148 18.0675 21.7813 18.3111 21.7817 18.5593C21.7822 18.8074 21.7164 19.0513 21.5913 19.2656ZM20.7769 18.3281C19.9062 16.8246 18.9687 13.3254 18.9687 9.1875C18.9687 7.07406 18.1291 5.04717 16.6347 3.55274C15.1403 2.05831 13.1134 1.21875 10.9999 1.21875C8.88649 1.21875 6.8596 2.05831 5.36517 3.55274C3.87074 5.04717 3.03118 7.07406 3.03118 9.1875C3.03118 13.3266 2.09368 16.8246 1.22181 18.3281C1.18066 18.3994 1.159 18.4802 1.159 18.5625C1.159 18.6448 1.18066 18.7256 1.22181 18.7969C1.26187 18.8684 1.32041 18.928 1.39132 18.9692C1.46223 19.0104 1.54291 19.0318 1.62493 19.0312H20.3749C20.457 19.0318 20.5376 19.0104 20.6085 18.9692C20.6794 18.928 20.738 18.8684 20.7781 18.7969C20.819 18.7255 20.8405 18.6446 20.8403 18.5623C20.8401 18.4801 20.8182 18.3993 20.7769 18.3281Z" fill="#1A3957"/>
</svg>
