<svg width="24" height="26" viewBox="0 0 24 26" fill="none" xmlns="http://www.w3.org/2000/svg">
<path d="M16.6871 24.25C16.6871 24.4986 16.5883 24.7371 16.4125 24.9129C16.2367 25.0887 15.9983 25.1875 15.7496 25.1875H8.24962C8.00098 25.1875 7.76252 25.0887 7.58671 24.9129C7.41089 24.7371 7.31212 24.4986 7.31212 24.25C7.31212 24.0014 7.41089 23.7629 7.58671 23.5871C7.76252 23.4113 8.00098 23.3125 8.24962 23.3125H15.7496C15.9983 23.3125 16.2367 23.4113 16.4125 23.5871C16.5883 23.7629 16.6871 24.0014 16.6871 24.25ZM22.993 18.618C22.3414 17.4977 21.3746 14.3277 21.3746 10.1875C21.3746 7.7011 20.3869 5.31653 18.6287 3.55837C16.8706 1.80022 14.486 0.8125 11.9996 0.8125C9.51321 0.8125 7.12865 1.80022 5.37049 3.55837C3.61234 5.31653 2.62462 7.7011 2.62462 10.1875C2.62462 14.3289 1.65665 17.4977 1.00626 18.618C0.84017 18.9028 0.752119 19.2264 0.750988 19.5561C0.749856 19.8858 0.835682 20.2099 0.999812 20.4959C1.16394 20.7818 1.40057 21.0195 1.68584 21.1848C1.9711 21.3501 2.29491 21.4373 2.62462 21.4375H21.3746C21.7042 21.4371 22.0279 21.3497 22.313 21.1843C22.5981 21.0189 22.8346 20.7813 22.9985 20.4954C23.1625 20.2095 23.2483 19.8854 23.2471 19.5558C23.2459 19.2262 23.1578 18.9027 22.9918 18.618H22.993Z" fill="#1A3957"/>
</svg>
