<svg width="11" height="15" viewBox="0 0 11 15" fill="none" xmlns="http://www.w3.org/2000/svg">
<path d="M10.3229 11.007L7.8135 8.96483C7.69912 8.87484 7.5641 8.8148 7.42066 8.79015C7.27723 8.7655 7.12991 8.77702 6.99205 8.82366C6.97814 8.8281 6.96457 8.83354 6.95145 8.83996L5.1212 9.70834C5.10348 9.71263 5.085 9.71274 5.06723 9.70865C5.04946 9.70456 5.03288 9.69639 5.01881 9.68479C4.18464 8.96564 3.45647 7.71325 3.24538 6.64406C3.24188 6.6262 3.24251 6.60778 3.24722 6.5902C3.25193 6.57262 3.2606 6.55635 3.27256 6.54263L4.94897 5.37421C4.96109 5.36549 4.97268 5.35606 4.9837 5.34599C5.09207 5.24918 5.17462 5.1269 5.2239 4.9902C5.27318 4.8535 5.28764 4.70668 5.26598 4.56299L4.75986 1.3759C4.73283 1.18852 4.64576 1.01497 4.51171 0.881285C4.37766 0.7476 4.20387 0.660996 4.01642 0.634471C3.19973 0.526799 2.37177 0.720185 1.68727 1.17849C1.00277 1.6368 0.508571 2.32866 0.29702 3.1248C-0.969576 7.8518 1.84559 12.7278 6.57259 13.9944C7.36784 14.2091 8.21406 14.127 8.95318 13.7634C9.6923 13.3998 10.2738 12.7795 10.589 12.0185C10.6595 11.8437 10.6716 11.6509 10.6237 11.4686C10.5758 11.2864 10.4703 11.1245 10.3229 11.007ZM6.76671 13.27C2.43936 12.1105 -0.138045 7.64626 1.02146 3.31891C1.18543 2.69893 1.5695 2.15985 2.10194 1.80239C2.63437 1.44494 3.27874 1.29356 3.91465 1.37654L3.92853 1.38026C3.95274 1.38723 3.97427 1.40136 3.99031 1.42078C4.00635 1.4402 4.01615 1.46402 4.01842 1.48911L4.53018 4.67447C4.5332 4.69223 4.53236 4.71044 4.52769 4.72784C4.52303 4.74524 4.51466 4.76143 4.50316 4.77529L2.82337 5.94669C2.81097 5.95495 2.79921 5.96412 2.78819 5.97415C2.67582 6.07452 2.59128 6.20221 2.54274 6.34485C2.49421 6.48748 2.48333 6.64024 2.51115 6.78831C2.75288 8.02812 3.5639 9.42047 4.52881 10.253C4.644 10.3509 4.78261 10.4174 4.93114 10.4459C5.07967 10.4743 5.23304 10.4638 5.37629 10.4153C5.38986 10.4106 5.4036 10.4052 5.41689 10.399L7.24653 9.53048C7.26336 9.52652 7.28086 9.52624 7.29781 9.52967C7.31476 9.53309 7.33077 9.54014 7.34474 9.55033L9.85479 11.5927C9.87543 11.6089 9.89047 11.6311 9.89777 11.6563C9.90507 11.6815 9.90428 11.7083 9.89549 11.733C9.64975 12.3256 9.19664 12.8085 8.62084 13.0913C8.04503 13.3742 7.38593 13.4377 6.76671 13.27Z" fill="#1A3957"/>
</svg>
