<svg width="17" height="16" viewBox="0 0 17 16" fill="none" xmlns="http://www.w3.org/2000/svg">
<path d="M7.81191 1.5868C8.07303 0.984639 8.92697 0.984639 9.18809 1.5868L10.6321 4.91676C10.7408 5.16737 10.9771 5.33908 11.249 5.36499L14.8622 5.70929C15.5156 5.77155 15.7795 6.5837 15.2875 7.01812L12.5667 9.42044C12.3619 9.60124 12.2717 9.87907 12.3311 10.1457L13.1202 13.6884C13.2628 14.3291 12.572 14.831 12.0068 14.4973L8.88129 12.6521C8.64607 12.5132 8.35393 12.5132 8.11871 12.6521L4.9932 14.4973C4.42801 14.831 3.73715 14.3291 3.87984 13.6884L4.66894 10.1457C4.72832 9.87907 4.63805 9.60124 4.43328 9.42044L1.71252 7.01812C1.22053 6.5837 1.48441 5.77155 2.13779 5.70929L5.75098 5.36499C6.02291 5.33908 6.25925 5.16737 6.36793 4.91675L7.81191 1.5868Z" stroke="#928BEB" stroke-width="1.5"/>
</svg>
