<svg width="15" height="15" viewBox="0 0 15 15" fill="none" xmlns="http://www.w3.org/2000/svg">
<path d="M8.34995 6.92994L8.3498 6.92978C8.14348 6.72053 7.95018 6.52614 7.74938 6.34897C7.74559 6.3457 7.74179 6.34245 7.73797 6.33923L6.83405 8.41781L9.10256 10.0378L9.10343 10.0384C9.14672 10.07 9.18178 10.1116 9.20564 10.1596C9.22935 10.2073 9.24132 10.26 9.24054 10.3133M8.34995 6.92994L9.14054 10.3125M8.34995 6.92994L8.35338 6.9334C8.77219 7.35629 9.22853 7.81708 9.82967 8.17053C10.435 8.52641 11.1837 8.77188 12.1874 8.77188C12.2761 8.77188 12.3611 8.73665 12.4239 8.67394C12.4866 8.61123 12.5218 8.52618 12.5218 8.4375C12.5218 8.34882 12.4866 8.26377 12.4239 8.20106C12.3611 8.13835 12.2761 8.10313 12.1874 8.10313C11.3171 8.10313 10.6801 7.89454 10.1612 7.58793C9.6405 7.28023 9.23537 6.87219 8.82765 6.46153L8.82541 6.45927L8.75441 6.52969M8.34995 6.92994L8.42101 6.85957M9.24054 10.3133C9.24053 10.3136 9.24053 10.3139 9.24052 10.3142L9.14054 10.3125M9.24054 10.3133V10.3125H9.14054M9.24054 10.3133V13.5938C9.24054 13.6824 9.20531 13.7675 9.1426 13.8302C9.0799 13.8929 8.99485 13.9281 8.90616 13.9281C8.81748 13.9281 8.73243 13.8929 8.66972 13.8302C8.60702 13.7675 8.57179 13.6824 8.57179 13.5938V10.4847M9.14054 10.3125V13.5938C9.14054 13.6559 9.11585 13.7155 9.07189 13.7595C9.02794 13.8034 8.96832 13.8281 8.90616 13.8281C8.844 13.8281 8.78439 13.8034 8.74044 13.7595C8.69648 13.7155 8.67179 13.6559 8.67179 13.5938V10.4332M8.57179 10.4847L8.61367 10.5146L8.67179 10.4332M8.57179 10.4847V10.4332H8.67179M8.57179 10.4847L8.67179 10.4332M7.14489 6.0254L3.91192 13.4601L3.91191 13.4601C3.8944 13.5004 3.885 13.5438 3.88424 13.5877C3.88349 13.6316 3.89138 13.6752 3.90749 13.7161C3.92359 13.757 3.94759 13.7943 3.97811 13.8258C4.00862 13.8574 4.04507 13.8827 4.08535 13.9002C4.12563 13.9177 4.16897 13.9271 4.21288 13.9279C4.2568 13.9286 4.30044 13.9207 4.3413 13.9046C4.38217 13.8885 4.41946 13.8645 4.45105 13.834C4.48264 13.8035 4.5079 13.7671 4.52541 13.7268C4.52541 13.7268 4.52541 13.7268 4.52542 13.7268L7.14489 6.0254ZM7.14489 6.0254C6.76205 5.9179 6.33728 5.95075 5.90458 6.07101C5.43335 6.20197 4.96071 6.43445 4.53726 6.6892C3.73201 7.17365 3.1181 7.73016 3.0453 7.79615C3.04154 7.79956 3.03922 7.80166 3.0384 7.80238L2.97296 7.72676L3.0412 7.79986C3.00902 7.8299 2.97123 7.85331 2.93 7.86875C2.88877 7.8842 2.8449 7.89137 2.8009 7.88985C2.7569 7.88834 2.71363 7.87818 2.67355 7.85994C2.63348 7.84171 2.59739 7.81576 2.56734 7.78357M7.14489 6.0254L2.64038 7.71539L2.56734 7.78357C2.56734 7.78357 2.56734 7.78357 2.56734 7.78357M2.56734 7.78357C2.5373 7.75139 2.51389 7.71361 2.49845 7.67237C2.483 7.63114 2.47583 7.58727 2.47735 7.54327C2.47886 7.49927 2.48902 7.456 2.50726 7.41592C2.52549 7.37585 2.55144 7.33976 2.58363 7.30972L2.58474 7.30868L2.58475 7.30869C3.17638 6.77295 3.82851 6.30808 4.5279 5.92351L4.52868 5.92308L4.52868 5.92308C6.01775 5.12142 7.29475 5.07161 8.18772 5.84655L8.18784 5.84665C8.4073 6.03771 8.61045 6.24254 8.82204 6.45588L8.82537 6.45923M2.56734 7.78357L8.82537 6.45923M8.42101 6.85957L8.42111 6.85968C9.26249 7.70926 10.2158 8.67188 12.1874 8.67188C12.2496 8.67188 12.3092 8.64718 12.3531 8.60323C12.3971 8.55928 12.4218 8.49966 12.4218 8.4375C12.4218 8.37534 12.3971 8.31573 12.3531 8.27177C12.3092 8.22782 12.2496 8.20313 12.1874 8.20313C10.4159 8.20313 9.57307 7.35425 8.7605 6.53583L8.75441 6.52969M8.42101 6.85957C8.21476 6.65039 8.01905 6.45352 7.81515 6.27363L8.42101 6.85957ZM8.75441 6.52969L8.75236 6.52763C8.53984 6.31335 8.33887 6.11072 8.12218 5.92207L8.82537 6.45923M8.75441 6.52969L8.82537 6.45923M6.6005 8.95396L6.5173 8.89453L6.47653 8.9883L6.55974 9.04772L6.6005 8.95396ZM8.90616 4.55313C9.25043 4.55313 9.58696 4.45104 9.8732 4.25978C10.1594 4.06852 10.3825 3.79667 10.5143 3.47861C10.646 3.16055 10.6805 2.81057 10.6133 2.47292C10.5462 2.13527 10.3804 1.82512 10.137 1.58169C9.89354 1.33826 9.58339 1.17248 9.24574 1.10532C8.90809 1.03816 8.55811 1.07263 8.24006 1.20437C7.922 1.33612 7.65015 1.55922 7.45889 1.84546C7.26762 2.13171 7.16554 2.46824 7.16554 2.8125C7.16554 3.27414 7.34893 3.71688 7.67536 4.04331C8.00179 4.36974 8.44452 4.55313 8.90616 4.55313ZM8.90616 1.74063C9.11816 1.74063 9.3254 1.80349 9.50167 1.92127C9.67793 2.03905 9.81532 2.20645 9.89645 2.40231C9.97757 2.59817 9.9988 2.81369 9.95744 3.02161C9.91608 3.22954 9.814 3.42053 9.66409 3.57043C9.51419 3.72034 9.3232 3.82242 9.11528 3.86378C8.90735 3.90514 8.69183 3.88391 8.49598 3.80278C8.30012 3.72166 8.13271 3.58427 8.01493 3.408C7.89715 3.23173 7.83429 3.0245 7.83429 2.8125C7.83429 2.52822 7.94722 2.25559 8.14823 2.05457C8.34925 1.85356 8.62188 1.74063 8.90616 1.74063Z" fill="#1A3957" stroke="#1A3957" stroke-width="0.2"/>
</svg>
