<svg width="24" height="24" viewBox="0 0 24 24" fill="none" xmlns="http://www.w3.org/2000/svg">
<mask id="path-1-outside-1_204_2102" maskUnits="userSpaceOnUse" x="-0.154297" y="-0.150879" width="24" height="24" fill="black">
<rect fill="white" x="-0.154297" y="-0.150879" width="24" height="24"/>
<path d="M12.8805 23.1511H11.1117C10.7138 23.151 10.3322 22.993 10.0506 22.712C9.76895 22.4309 9.61026 22.0496 9.6093 21.6517V19.7095C9.07133 19.542 8.55216 19.3192 8.0601 19.0447L6.8259 20.2711C6.2493 20.8369 5.2725 20.8315 4.7043 20.2645L3.4539 19.0063C3.17421 18.7239 3.01795 18.342 3.01941 17.9445C3.02088 17.547 3.17994 17.1663 3.4617 16.8859L4.7667 15.5899C4.57476 15.2026 4.41366 14.8008 4.2849 14.3881H2.3457C1.94774 14.3862 1.56667 14.227 1.28566 13.9452C1.00465 13.6634 0.846491 13.2819 0.845703 12.8839V11.1145C0.84602 10.7167 1.00412 10.3352 1.28532 10.0538C1.56652 9.77236 1.94787 9.61396 2.3457 9.61332H4.2879C4.45513 9.0762 4.67793 8.558 4.9527 8.06712L3.5067 6.60672C3.36728 6.46686 3.25703 6.30069 3.18235 6.11786C3.10768 5.93504 3.07007 5.7392 3.0717 5.54172C3.07235 5.34477 3.11208 5.1499 3.18861 4.96843C3.26514 4.78695 3.37693 4.62247 3.5175 4.48452L4.7721 3.23592C5.3469 2.67192 6.3303 2.67792 6.8943 3.24312L8.4087 4.77132C8.7927 4.57932 9.1965 4.41732 9.6141 4.28952V2.34912C9.6141 1.52172 10.2873 0.849121 11.1141 0.849121H12.8853C13.2829 0.849756 13.664 1.00801 13.945 1.2892C14.2261 1.57038 14.3842 1.95155 14.3847 2.34912V4.29192C14.818 4.42617 15.2391 4.59698 15.6435 4.80252L17.1723 3.28812C17.7489 2.72172 18.7281 2.73012 19.2939 3.29532L20.5419 4.55292C20.8221 4.83312 20.9769 5.21052 20.9769 5.61492C20.9769 5.81211 20.9377 6.00733 20.8616 6.18923C20.7854 6.37113 20.6739 6.53609 20.5335 6.67452L19.0785 8.12052C19.3395 8.59692 19.5519 9.09852 19.7115 9.61692H21.6555C22.0531 9.61756 22.4342 9.77581 22.7153 10.057C22.9963 10.3382 23.1544 10.7193 23.1549 11.1169V12.8833C23.1547 13.2812 22.9968 13.6627 22.7157 13.9442C22.4346 14.2258 22.0533 14.3843 21.6555 14.3851H19.7115C19.5779 14.8192 19.4066 15.2408 19.1997 15.6451L20.4951 16.9495C20.7747 17.2261 20.9295 17.6041 20.9295 18.0115C20.9295 18.4111 20.7717 18.7867 20.4861 19.0699L19.2315 20.3191C18.6549 20.8849 17.6697 20.8741 17.1105 20.3107L15.8859 19.0765C15.4077 19.3393 14.9079 19.5523 14.3937 19.7113V21.6547C14.387 22.0524 14.2249 22.4316 13.9421 22.7113C13.6593 22.991 13.2782 23.1488 12.8805 23.1511ZM7.9695 18.3307L8.1597 18.4429C8.7271 18.7802 9.3363 19.0417 9.9717 19.2205L10.1799 19.2787V21.6505C10.1799 22.1629 10.5981 22.5799 11.1117 22.5799H12.8805C13.1277 22.5786 13.3646 22.4807 13.5407 22.3072C13.7168 22.1337 13.8181 21.8983 13.8231 21.6511V19.2823L14.0313 19.2241C14.6475 19.0515 15.2386 18.7996 15.7899 18.4747L15.9801 18.3625L17.5143 19.9081C17.8605 20.2573 18.4719 20.2633 18.8301 19.9123L20.0835 18.6637C20.2605 18.4885 20.3583 18.2563 20.3583 18.0103C20.3583 17.7565 20.2635 17.5231 20.0913 17.3527L18.4971 15.7465L18.5985 15.5605C18.8685 15.0637 19.0779 14.5459 19.2219 14.0227L19.2801 13.8133H21.6555C22.1679 13.8133 22.5849 13.3957 22.5849 12.8821V11.1157C22.5849 10.6033 22.1679 10.1857 21.6555 10.1857H19.2807L19.2225 9.97692C19.0509 9.35965 18.8002 8.76714 18.4767 8.21412L18.3651 8.02332L20.1309 6.26832C20.3085 6.09192 20.4063 5.85912 20.4063 5.61312C20.4063 5.36112 20.3109 5.12712 20.1375 4.95432L18.8895 3.69672C18.713 3.52582 18.4771 3.42997 18.2314 3.4293C17.9857 3.42863 17.7493 3.52319 17.5719 3.69312L15.7461 5.50212L15.5601 5.40192C15.0724 5.1373 14.5566 4.9282 14.0223 4.77852L13.8135 4.72032V2.34912C13.8135 1.83672 13.3965 1.41912 12.8841 1.41912H11.1129C10.6005 1.41912 10.1835 1.83612 10.1835 2.34912V4.71972L9.9747 4.77792C9.4527 4.92252 8.9529 5.12292 8.4879 5.37252L8.3001 5.47332L6.4887 3.64572C6.1401 3.29772 5.5275 3.29232 5.1717 3.64212L3.9183 4.88952C3.83102 4.97491 3.76161 5.07682 3.71412 5.18931C3.66663 5.3018 3.64201 5.42262 3.6417 5.54472C3.64066 5.66723 3.664 5.78873 3.71035 5.90214C3.75671 6.01555 3.82515 6.11861 3.9117 6.20532L5.6655 7.97712L5.5533 8.16612C5.21607 8.73271 4.95464 9.34111 4.7757 9.97572L4.7175 10.1839H2.3457C1.8333 10.1839 1.4163 10.6015 1.4163 11.1145V12.8839C1.4163 13.3969 1.8333 13.8157 2.3469 13.8175H4.7163L4.7745 14.0263C4.9137 14.5279 5.1135 15.0271 5.3697 15.5113L5.4687 15.6979L3.8643 17.2897C3.68973 17.4633 3.59113 17.6991 3.59012 17.9453C3.58911 18.1915 3.68577 18.4281 3.8589 18.6031L5.1087 19.8607C5.4615 20.2117 6.0681 20.2153 6.4257 19.8643L7.9695 18.3307Z"/>
</mask>
<path d="M12.8805 23.1511H11.1117C10.7138 23.151 10.3322 22.993 10.0506 22.712C9.76895 22.4309 9.61026 22.0496 9.6093 21.6517V19.7095C9.07133 19.542 8.55216 19.3192 8.0601 19.0447L6.8259 20.2711C6.2493 20.8369 5.2725 20.8315 4.7043 20.2645L3.4539 19.0063C3.17421 18.7239 3.01795 18.342 3.01941 17.9445C3.02088 17.547 3.17994 17.1663 3.4617 16.8859L4.7667 15.5899C4.57476 15.2026 4.41366 14.8008 4.2849 14.3881H2.3457C1.94774 14.3862 1.56667 14.227 1.28566 13.9452C1.00465 13.6634 0.846491 13.2819 0.845703 12.8839V11.1145C0.84602 10.7167 1.00412 10.3352 1.28532 10.0538C1.56652 9.77236 1.94787 9.61396 2.3457 9.61332H4.2879C4.45513 9.0762 4.67793 8.558 4.9527 8.06712L3.5067 6.60672C3.36728 6.46686 3.25703 6.30069 3.18235 6.11786C3.10768 5.93504 3.07007 5.7392 3.0717 5.54172C3.07235 5.34477 3.11208 5.1499 3.18861 4.96843C3.26514 4.78695 3.37693 4.62247 3.5175 4.48452L4.7721 3.23592C5.3469 2.67192 6.3303 2.67792 6.8943 3.24312L8.4087 4.77132C8.7927 4.57932 9.1965 4.41732 9.6141 4.28952V2.34912C9.6141 1.52172 10.2873 0.849121 11.1141 0.849121H12.8853C13.2829 0.849756 13.664 1.00801 13.945 1.2892C14.2261 1.57038 14.3842 1.95155 14.3847 2.34912V4.29192C14.818 4.42617 15.2391 4.59698 15.6435 4.80252L17.1723 3.28812C17.7489 2.72172 18.7281 2.73012 19.2939 3.29532L20.5419 4.55292C20.8221 4.83312 20.9769 5.21052 20.9769 5.61492C20.9769 5.81211 20.9377 6.00733 20.8616 6.18923C20.7854 6.37113 20.6739 6.53609 20.5335 6.67452L19.0785 8.12052C19.3395 8.59692 19.5519 9.09852 19.7115 9.61692H21.6555C22.0531 9.61756 22.4342 9.77581 22.7153 10.057C22.9963 10.3382 23.1544 10.7193 23.1549 11.1169V12.8833C23.1547 13.2812 22.9968 13.6627 22.7157 13.9442C22.4346 14.2258 22.0533 14.3843 21.6555 14.3851H19.7115C19.5779 14.8192 19.4066 15.2408 19.1997 15.6451L20.4951 16.9495C20.7747 17.2261 20.9295 17.6041 20.9295 18.0115C20.9295 18.4111 20.7717 18.7867 20.4861 19.0699L19.2315 20.3191C18.6549 20.8849 17.6697 20.8741 17.1105 20.3107L15.8859 19.0765C15.4077 19.3393 14.9079 19.5523 14.3937 19.7113V21.6547C14.387 22.0524 14.2249 22.4316 13.9421 22.7113C13.6593 22.991 13.2782 23.1488 12.8805 23.1511ZM7.9695 18.3307L8.1597 18.4429C8.7271 18.7802 9.3363 19.0417 9.9717 19.2205L10.1799 19.2787V21.6505C10.1799 22.1629 10.5981 22.5799 11.1117 22.5799H12.8805C13.1277 22.5786 13.3646 22.4807 13.5407 22.3072C13.7168 22.1337 13.8181 21.8983 13.8231 21.6511V19.2823L14.0313 19.2241C14.6475 19.0515 15.2386 18.7996 15.7899 18.4747L15.9801 18.3625L17.5143 19.9081C17.8605 20.2573 18.4719 20.2633 18.8301 19.9123L20.0835 18.6637C20.2605 18.4885 20.3583 18.2563 20.3583 18.0103C20.3583 17.7565 20.2635 17.5231 20.0913 17.3527L18.4971 15.7465L18.5985 15.5605C18.8685 15.0637 19.0779 14.5459 19.2219 14.0227L19.2801 13.8133H21.6555C22.1679 13.8133 22.5849 13.3957 22.5849 12.8821V11.1157C22.5849 10.6033 22.1679 10.1857 21.6555 10.1857H19.2807L19.2225 9.97692C19.0509 9.35965 18.8002 8.76714 18.4767 8.21412L18.3651 8.02332L20.1309 6.26832C20.3085 6.09192 20.4063 5.85912 20.4063 5.61312C20.4063 5.36112 20.3109 5.12712 20.1375 4.95432L18.8895 3.69672C18.713 3.52582 18.4771 3.42997 18.2314 3.4293C17.9857 3.42863 17.7493 3.52319 17.5719 3.69312L15.7461 5.50212L15.5601 5.40192C15.0724 5.1373 14.5566 4.9282 14.0223 4.77852L13.8135 4.72032V2.34912C13.8135 1.83672 13.3965 1.41912 12.8841 1.41912H11.1129C10.6005 1.41912 10.1835 1.83612 10.1835 2.34912V4.71972L9.9747 4.77792C9.4527 4.92252 8.9529 5.12292 8.4879 5.37252L8.3001 5.47332L6.4887 3.64572C6.1401 3.29772 5.5275 3.29232 5.1717 3.64212L3.9183 4.88952C3.83102 4.97491 3.76161 5.07682 3.71412 5.18931C3.66663 5.3018 3.64201 5.42262 3.6417 5.54472C3.64066 5.66723 3.664 5.78873 3.71035 5.90214C3.75671 6.01555 3.82515 6.11861 3.9117 6.20532L5.6655 7.97712L5.5533 8.16612C5.21607 8.73271 4.95464 9.34111 4.7757 9.97572L4.7175 10.1839H2.3457C1.8333 10.1839 1.4163 10.6015 1.4163 11.1145V12.8839C1.4163 13.3969 1.8333 13.8157 2.3469 13.8175H4.7163L4.7745 14.0263C4.9137 14.5279 5.1135 15.0271 5.3697 15.5113L5.4687 15.6979L3.8643 17.2897C3.68973 17.4633 3.59113 17.6991 3.59012 17.9453C3.58911 18.1915 3.68577 18.4281 3.8589 18.6031L5.1087 19.8607C5.4615 20.2117 6.0681 20.2153 6.4257 19.8643L7.9695 18.3307Z" fill="#1A3957"/>
<path d="M12.8805 23.1511H11.1117C10.7138 23.151 10.3322 22.993 10.0506 22.712C9.76895 22.4309 9.61026 22.0496 9.6093 21.6517V19.7095C9.07133 19.542 8.55216 19.3192 8.0601 19.0447L6.8259 20.2711C6.2493 20.8369 5.2725 20.8315 4.7043 20.2645L3.4539 19.0063C3.17421 18.7239 3.01795 18.342 3.01941 17.9445C3.02088 17.547 3.17994 17.1663 3.4617 16.8859L4.7667 15.5899C4.57476 15.2026 4.41366 14.8008 4.2849 14.3881H2.3457C1.94774 14.3862 1.56667 14.227 1.28566 13.9452C1.00465 13.6634 0.846491 13.2819 0.845703 12.8839V11.1145C0.84602 10.7167 1.00412 10.3352 1.28532 10.0538C1.56652 9.77236 1.94787 9.61396 2.3457 9.61332H4.2879C4.45513 9.0762 4.67793 8.558 4.9527 8.06712L3.5067 6.60672C3.36728 6.46686 3.25703 6.30069 3.18235 6.11786C3.10768 5.93504 3.07007 5.7392 3.0717 5.54172C3.07235 5.34477 3.11208 5.1499 3.18861 4.96843C3.26514 4.78695 3.37693 4.62247 3.5175 4.48452L4.7721 3.23592C5.3469 2.67192 6.3303 2.67792 6.8943 3.24312L8.4087 4.77132C8.7927 4.57932 9.1965 4.41732 9.6141 4.28952V2.34912C9.6141 1.52172 10.2873 0.849121 11.1141 0.849121H12.8853C13.2829 0.849756 13.664 1.00801 13.945 1.2892C14.2261 1.57038 14.3842 1.95155 14.3847 2.34912V4.29192C14.818 4.42617 15.2391 4.59698 15.6435 4.80252L17.1723 3.28812C17.7489 2.72172 18.7281 2.73012 19.2939 3.29532L20.5419 4.55292C20.8221 4.83312 20.9769 5.21052 20.9769 5.61492C20.9769 5.81211 20.9377 6.00733 20.8616 6.18923C20.7854 6.37113 20.6739 6.53609 20.5335 6.67452L19.0785 8.12052C19.3395 8.59692 19.5519 9.09852 19.7115 9.61692H21.6555C22.0531 9.61756 22.4342 9.77581 22.7153 10.057C22.9963 10.3382 23.1544 10.7193 23.1549 11.1169V12.8833C23.1547 13.2812 22.9968 13.6627 22.7157 13.9442C22.4346 14.2258 22.0533 14.3843 21.6555 14.3851H19.7115C19.5779 14.8192 19.4066 15.2408 19.1997 15.6451L20.4951 16.9495C20.7747 17.2261 20.9295 17.6041 20.9295 18.0115C20.9295 18.4111 20.7717 18.7867 20.4861 19.0699L19.2315 20.3191C18.6549 20.8849 17.6697 20.8741 17.1105 20.3107L15.8859 19.0765C15.4077 19.3393 14.9079 19.5523 14.3937 19.7113V21.6547C14.387 22.0524 14.2249 22.4316 13.9421 22.7113C13.6593 22.991 13.2782 23.1488 12.8805 23.1511ZM7.9695 18.3307L8.1597 18.4429C8.7271 18.7802 9.3363 19.0417 9.9717 19.2205L10.1799 19.2787V21.6505C10.1799 22.1629 10.5981 22.5799 11.1117 22.5799H12.8805C13.1277 22.5786 13.3646 22.4807 13.5407 22.3072C13.7168 22.1337 13.8181 21.8983 13.8231 21.6511V19.2823L14.0313 19.2241C14.6475 19.0515 15.2386 18.7996 15.7899 18.4747L15.9801 18.3625L17.5143 19.9081C17.8605 20.2573 18.4719 20.2633 18.8301 19.9123L20.0835 18.6637C20.2605 18.4885 20.3583 18.2563 20.3583 18.0103C20.3583 17.7565 20.2635 17.5231 20.0913 17.3527L18.4971 15.7465L18.5985 15.5605C18.8685 15.0637 19.0779 14.5459 19.2219 14.0227L19.2801 13.8133H21.6555C22.1679 13.8133 22.5849 13.3957 22.5849 12.8821V11.1157C22.5849 10.6033 22.1679 10.1857 21.6555 10.1857H19.2807L19.2225 9.97692C19.0509 9.35965 18.8002 8.76714 18.4767 8.21412L18.3651 8.02332L20.1309 6.26832C20.3085 6.09192 20.4063 5.85912 20.4063 5.61312C20.4063 5.36112 20.3109 5.12712 20.1375 4.95432L18.8895 3.69672C18.713 3.52582 18.4771 3.42997 18.2314 3.4293C17.9857 3.42863 17.7493 3.52319 17.5719 3.69312L15.7461 5.50212L15.5601 5.40192C15.0724 5.1373 14.5566 4.9282 14.0223 4.77852L13.8135 4.72032V2.34912C13.8135 1.83672 13.3965 1.41912 12.8841 1.41912H11.1129C10.6005 1.41912 10.1835 1.83612 10.1835 2.34912V4.71972L9.9747 4.77792C9.4527 4.92252 8.9529 5.12292 8.4879 5.37252L8.3001 5.47332L6.4887 3.64572C6.1401 3.29772 5.5275 3.29232 5.1717 3.64212L3.9183 4.88952C3.83102 4.97491 3.76161 5.07682 3.71412 5.18931C3.66663 5.3018 3.64201 5.42262 3.6417 5.54472C3.64066 5.66723 3.664 5.78873 3.71035 5.90214C3.75671 6.01555 3.82515 6.11861 3.9117 6.20532L5.6655 7.97712L5.5533 8.16612C5.21607 8.73271 4.95464 9.34111 4.7757 9.97572L4.7175 10.1839H2.3457C1.8333 10.1839 1.4163 10.6015 1.4163 11.1145V12.8839C1.4163 13.3969 1.8333 13.8157 2.3469 13.8175H4.7163L4.7745 14.0263C4.9137 14.5279 5.1135 15.0271 5.3697 15.5113L5.4687 15.6979L3.8643 17.2897C3.68973 17.4633 3.59113 17.6991 3.59012 17.9453C3.58911 18.1915 3.68577 18.4281 3.8589 18.6031L5.1087 19.8607C5.4615 20.2117 6.0681 20.2153 6.4257 19.8643L7.9695 18.3307Z" stroke="#1A3957" stroke-width="0.3" mask="url(#path-1-outside-1_204_2102)"/>
</svg>
