<svg width="17" height="17" viewBox="0 0 17 17" fill="none" xmlns="http://www.w3.org/2000/svg">
<g clip-path="url(#clip0_1001_674)">
<path d="M7.81191 1.5868C8.07303 0.984638 8.92697 0.984639 9.18809 1.5868L10.7763 5.24944C10.885 5.50006 11.1214 5.67177 11.3933 5.69768L15.3675 6.07637C16.0208 6.13863 16.2847 6.95079 15.7927 7.3852L12.8001 10.0275C12.5954 10.2083 12.5051 10.4862 12.5645 10.7528L13.4324 14.6495C13.5751 15.2901 12.8842 15.7921 12.3191 15.4584L8.88129 13.4288C8.64607 13.2899 8.35393 13.2899 8.11871 13.4288L4.68094 15.4584C4.11575 15.7921 3.42489 15.2901 3.56758 14.6495L4.43551 10.7528C4.4949 10.4862 4.40463 10.2083 4.19986 10.0275L1.20727 7.3852C0.715275 6.95079 0.97916 6.13863 1.63254 6.07637L5.60671 5.69768C5.87865 5.67177 6.11498 5.50006 6.22366 5.24944L7.81191 1.5868Z" stroke="white"/>
</g>
<defs>
<clipPath id="clip0_1001_674">
<rect width="17" height="17" fill="white"/>
</clipPath>
</defs>
</svg>
